<?xml version="1.0" encoding="utf-8"?>
<!-- Generator: Adobe Illustrator 27.5.0, SVG Export Plug-In . SVG Version: 6.00 Build 0)  -->
<svg version="1.1" xmlns="http://www.w3.org/2000/svg" xmlns:xlink="http://www.w3.org/1999/xlink" x="0px" y="0px"
	 viewBox="0 0 750 500" style="enable-background:new 0 0 750 500;" xml:space="preserve">
<g id="BACKGROUND">
	<rect style="fill:#FFFFFF;" width="750" height="500"/>
</g>
<g id="OBJECTS">
	<path style="fill:#D2D9FF;" d="M193.525,355.674c0,0-37.649-16.044-53.152-56.646c-15.503-40.602-2.215-67.972,26.576-70.897
		c28.79-2.925,31.071-26.548,30.669-64.197s49.797-76.037,116.975-88.586s81.942,28.052,119.592,34.696
		c37.649,6.644,109.256-1.476,129.927,16.979c20.67,18.455,29.529,51.056,11.812,96.766c-17.717,45.71-5.755,58.998,10.78,86.312
		c16.534,27.314,15.796,62.749-7.089,87.11H231.912C231.912,397.211,226.108,379.701,193.525,355.674z"/>
	<g>
		<g>
			<path style="fill:#98A3F4;" d="M544.695,397.211c0,0-3.399-4.532,2.266-10.197c0,0-3.276-19.185,16.287-21.768
				c0,0,3.691-12.919,14.764-14.395c11.073-1.477,19.932,5.537,22.516,15.134c0,0,8.49-2.953,16.241,2.215
				c7.751,5.168,7.013,15.872,7.013,15.872s8.49,3.027,5.168,13.14H544.695z"/>
			<path style="fill:#7284DD;" d="M572.906,389.047c-5.864-0.652-7.167-7.602-3.692-12.815c3.475-5.213,12.195-2.299,12.195-2.299
				s-7.417-5.085-3.725-12.919c2.503-5.311,6.698-8.177,9.144-9.475c-2.7-0.82-5.664-1.107-8.817-0.687
				c-11.073,1.476-14.764,14.395-14.764,14.395c-19.563,2.584-16.287,21.768-16.287,21.768c-5.665,5.665-2.266,10.197-2.266,10.197
				h27.043C570.454,393.358,572.906,389.047,572.906,389.047z"/>
			<line style="fill:none;stroke:#2B284F;stroke-miterlimit:10;" x1="582.026" y1="397.211" x2="582.026" y2="367.641"/>
			<line style="fill:none;stroke:#2B284F;stroke-miterlimit:10;" x1="567.508" y1="373.933" x2="582.026" y2="385.793"/>
			<line style="fill:none;stroke:#2B284F;stroke-miterlimit:10;" x1="582.026" y1="392.191" x2="602.204" y2="379.863"/>
		</g>
		<g>
			<path style="fill:#4958ED;" d="M509.236,395.499c0,0-5.906-10.089-7.382-20.67c-1.476-10.581,0.492-20.916,3.691-20.67
				c3.199,0.246,5.262,9.105,10.382,5.906c5.12-3.199,1.521-22.147,5.859-37.403c4.338-15.257,13.288-18.813,17.963-16.419
				c4.675,2.393,0.246,25.77,6.398,23.556c6.152-2.215,1.723-23.869,18.456-38.88c16.733-15.01,21.408-6.644,19.44,0
				c-1.969,6.644-22.146,33.22-18.701,41.094c3.445,7.874,12.654-0.246,19.123,3.445c6.469,3.691-1.898,14.518-14.693,19.44
				c-12.796,4.922-9.351,8.12-3.691,12.796c5.66,4.675,12.796,17.717-5.168,23.623C542.948,397.222,515.142,400.667,509.236,395.499
				z"/>
			<path style="fill:#3248B2;" d="M510.389,396.256c3.6-4.866,10.443-14.389,18.756-27.3c12.377-19.222,25.083-40.762,32.25-56.218
				c4.692-10.118,14.085-22.537,20.014-29.909c-3-1.101-8.368,0.52-16.806,8.09c-16.733,15.01-12.304,36.665-18.456,38.88
				c-6.152,2.215-1.722-21.162-6.398-23.556c-4.675-2.393-13.625,1.163-17.963,16.419c-4.338,15.257-0.738,34.204-5.859,37.403
				c-5.12,3.199-7.183-5.66-10.382-5.906c-3.199-0.246-5.167,10.089-3.691,20.67c1.476,10.581,7.382,20.67,7.382,20.67
				C509.555,395.778,509.948,396.026,510.389,396.256z"/>
			<line style="fill:none;stroke:#2B284F;stroke-miterlimit:10;" x1="510.389" y1="396.256" x2="549.052" y2="337.672"/>
			<line style="fill:none;stroke:#2B284F;stroke-miterlimit:10;" x1="529.144" y1="332.012" x2="533.804" y2="361.013"/>
			<line style="fill:none;stroke:#2B284F;stroke-miterlimit:10;" x1="522.732" y1="377.552" x2="558.403" y2="377.265"/>
		</g>
	</g>
	<g>
		<path style="fill:#7DA2FF;" d="M135.205,124.464h110.241c0,0,0.492-4.429-7.382-10.581c-7.874-6.152-5.414-13.288-15.995-15.01
			c-10.581-1.723-12.796,5.66-20.67,1.476c-7.874-4.183-8.367-11.319-19.44-12.55c-11.073-1.23-15.257,16.733-20.424,18.332
			c-5.168,1.599-20.424,1.599-24.115,8.49C133.729,121.511,135.205,124.464,135.205,124.464z"/>
		<path style="fill:#7DA2FF;" d="M472.387,97.826h115.9c0,0-0.923-6.46-13.472-8.859c-12.55-2.399-10.52-8.305-17.717-12.55
			c-7.198-4.245-5.168-13.103-17.164-13.657c-11.996-0.554-16.241,17.533-21.777,17.533c-5.537,0-8.674-9.056-18.271-0.006
			c-9.597,9.049-17.164,8.127-22.7,9.419C471.649,90.998,472.387,97.826,472.387,97.826z"/>
		<path style="fill:#6A92E2;" d="M174.386,108.649c0.897-9.143,6.035-16.13,10.212-20.402c-0.81-0.189-1.683-0.342-2.639-0.448
			c-11.073-1.23-15.257,16.733-20.424,18.332c-5.168,1.599-20.424,1.599-24.115,8.49c-3.691,6.89-2.215,9.843-2.215,9.843h49.821
			C178.768,120.259,173.773,114.899,174.386,108.649z"/>
		<path style="fill:#6A92E2;" d="M524.255,87.798c-1.264-7.331,2.914-15.686,6.629-21.395c-5.646,5.141-8.875,13.89-12.727,13.89
			c-5.537,0-8.674-9.056-18.271-0.006c-9.597,9.049-17.164,8.127-22.7,9.419c-5.537,1.292-4.798,8.12-4.798,8.12h61.432
			C528.699,94.844,524.884,91.45,524.255,87.798z"/>
	</g>
	<g>
		<g>
			<path style="fill:#98A3F4;" d="M187.993,261.157c0,0,6.242,14.764-7.046,21.039c-13.288,6.275-12.181,19.329-8.859,26.643
				c3.322,7.315,6.644,18.388-5.537,29.83c-12.181,11.442-18.086,23.254-14.764,39.864c3.322,16.61,14.395,18.677,14.395,18.677
				h66.809c0,0,20.67-18.701,6.275-46.557c-14.395-27.856-14.026-29.566-10.704-41.814c3.322-12.248,3.691-15.939-7.751-30.704
				c-11.442-14.764-2.08-37.28-4.547-45.4c-2.466-8.12-13.909-13.657-22.398-5.906C185.376,234.581,182.489,244.916,187.993,261.157
				z"/>
			<path style="fill:#8090E0;" d="M202.739,223.121c-2.995,0.064-6.092,1.17-8.873,3.709c-8.49,7.751-11.377,18.086-5.873,34.327
				c0,0,6.242,14.764-7.046,21.039c-13.288,6.275-12.181,19.329-8.858,26.643c3.322,7.315,6.644,18.388-5.537,29.83
				c-12.181,11.442-18.086,23.254-14.764,39.864c3.322,16.61,14.395,18.677,14.395,18.677h36.557V223.121z"/>
			<line style="fill:none;stroke:#2B284F;stroke-miterlimit:10;" x1="203.024" y1="397.211" x2="203.024" y2="308.84"/>
			<line style="fill:none;stroke:#2B284F;stroke-miterlimit:10;" x1="192.211" y1="335.348" x2="203.024" y2="350.654"/>
			<line style="fill:none;stroke:#2B284F;stroke-miterlimit:10;" x1="203.024" y1="375.95" x2="225.923" y2="353.025"/>
		</g>
		<g>
			<path style="fill:#7CBFF2;" d="M112.592,397.211c0,0-3.399-4.532,2.266-10.197c0,0-3.276-19.185,16.287-21.768
				c0,0,3.691-12.919,14.764-14.395c11.073-1.477,19.932,5.537,22.516,15.134c0,0,8.49-2.953,16.241,2.215
				c7.751,5.168,7.013,15.872,7.013,15.872s8.49,3.027,5.168,13.14H112.592z"/>
			<path style="fill:#6DABD1;" d="M134.934,387.014c1.955-12.892,16.41-11.064,16.41-11.064s-10.546-2.107-9.568-12.016
				c0.654-6.629,5.388-11.032,8.452-13.223c-1.395-0.093-2.835-0.058-4.319,0.139c-11.073,1.476-14.764,14.395-14.764,14.395
				c-19.563,2.584-16.287,21.768-16.287,21.768c-5.665,5.665-2.266,10.197-2.266,10.197h25.124
				C135.482,394.836,134.248,391.541,134.934,387.014z"/>
			<line style="fill:none;stroke:#2B284F;stroke-miterlimit:10;" x1="151.152" y1="397.211" x2="151.152" y2="367.641"/>
			<line style="fill:none;stroke:#2B284F;stroke-miterlimit:10;" x1="136.634" y1="373.933" x2="151.152" y2="385.793"/>
			<line style="fill:none;stroke:#2B284F;stroke-miterlimit:10;" x1="151.152" y1="392.191" x2="171.33" y2="379.863"/>
		</g>
	</g>
	
		<line style="fill:none;stroke:#2B284F;stroke-width:3;stroke-linecap:round;stroke-miterlimit:10;" x1="103.906" y1="397.211" x2="636.901" y2="397.211"/>
	<g>
		
			<line style="fill:none;stroke:#D2D9FF;stroke-width:3;stroke-linecap:round;stroke-miterlimit:10;" x1="225.889" y1="420.243" x2="311.638" y2="420.243"/>
		
			<line style="fill:none;stroke:#D2D9FF;stroke-width:3;stroke-linecap:round;stroke-miterlimit:10;" x1="201.836" y1="435.5" x2="258.117" y2="435.5"/>
		
			<line style="fill:none;stroke:#D2D9FF;stroke-width:3;stroke-linecap:round;stroke-miterlimit:10;" x1="462.189" y1="440.422" x2="564.555" y2="440.422"/>
		
			<line style="fill:none;stroke:#D2D9FF;stroke-width:3;stroke-linecap:round;stroke-miterlimit:10;" x1="436.031" y1="458.139" x2="482.055" y2="458.139"/>
	</g>
	<g>
		<g>
			<path style="fill:#E9EFFF;" d="M511.787,359.823H230.029c-7.918,0-14.337-6.419-14.337-14.337V132.839
				c0-7.918,6.419-14.337,14.337-14.337h281.758c7.918,0,14.337,6.419,14.337,14.337v212.647
				C526.124,353.404,519.705,359.823,511.787,359.823z"/>
			<path style="fill:#2B284F;" d="M526.124,319.036V134.745c0-8.971-7.272-16.243-16.243-16.243H231.936
				c-8.971,0-16.243,7.272-16.243,16.243v184.291H526.124z"/>
			<path style="fill:#D2D9FF;" d="M510.286,308.84H231.531c-3.116,0-5.642-2.526-5.642-5.642V134.34
				c0-3.116,2.526-5.642,5.642-5.642h278.755c3.116,0,5.642,2.526,5.642,5.642v168.857
				C515.928,306.314,513.402,308.84,510.286,308.84z"/>
			<g>
				<defs>
					<path id="SVGID_1_" d="M510.286,308.84H231.531c-3.116,0-5.642-2.526-5.642-5.642V134.34c0-3.116,2.526-5.642,5.642-5.642
						h278.755c3.116,0,5.642,2.526,5.642,5.642v168.857C515.928,306.314,513.402,308.84,510.286,308.84z"/>
				</defs>
				<clipPath id="SVGID_00000158003384727550764440000017636425612270834316_">
					<use xlink:href="#SVGID_1_"  style="overflow:visible;"/>
				</clipPath>
				<g style="clip-path:url(#SVGID_00000158003384727550764440000017636425612270834316_);">
					
						<line style="fill:none;stroke:#FFFFFF;stroke-width:5;stroke-linecap:round;stroke-linejoin:round;stroke-miterlimit:10;" x1="225.889" y1="160.021" x2="279.477" y2="231.538"/>
					
						<line style="fill:none;stroke:#FFFFFF;stroke-width:5;stroke-linecap:round;stroke-linejoin:round;stroke-miterlimit:10;" x1="225.889" y1="270.082" x2="427.048" y2="128.699"/>
					
						<line style="fill:none;stroke:#FFFFFF;stroke-width:5;stroke-linecap:round;stroke-linejoin:round;stroke-miterlimit:10;" x1="303.15" y1="128.699" x2="343.867" y2="187.162"/>
					
						<line style="fill:none;stroke:#FFFFFF;stroke-width:5;stroke-linecap:round;stroke-linejoin:round;stroke-miterlimit:10;" x1="245.452" y1="186.13" x2="311.638" y2="140.886"/>
					
						<line style="fill:none;stroke:#FFFFFF;stroke-width:5;stroke-linecap:round;stroke-linejoin:round;stroke-miterlimit:10;" x1="264.385" y1="211.396" x2="329.826" y2="167.002"/>
					
						<line style="fill:none;stroke:#FFFFFF;stroke-width:5;stroke-linecap:round;stroke-linejoin:round;stroke-miterlimit:10;" x1="286.909" y1="308.84" x2="436.031" y2="195.344"/>
					
						<line style="fill:none;stroke:#FFFFFF;stroke-width:5;stroke-linecap:round;stroke-linejoin:round;stroke-miterlimit:10;" x1="290.099" y1="224.952" x2="351.873" y2="308.84"/>
					
						<line style="fill:none;stroke:#FFFFFF;stroke-width:5;stroke-linecap:round;stroke-linejoin:round;stroke-miterlimit:10;" x1="383.033" y1="236.131" x2="437.875" y2="308.84"/>
					
						<polyline style="fill:none;stroke:#FFFFFF;stroke-width:5;stroke-linecap:round;stroke-linejoin:round;stroke-miterlimit:10;" points="
						475.894,128.699 417.402,170.664 515.928,302.448 					"/>
					
						<line style="fill:none;stroke:#FFFFFF;stroke-width:5;stroke-linecap:round;stroke-linejoin:round;stroke-miterlimit:10;" x1="457.99" y1="224.952" x2="515.928" y2="181.306"/>
					
						<line style="fill:none;stroke:#FFFFFF;stroke-width:5;stroke-linecap:round;stroke-linejoin:round;stroke-miterlimit:10;" x1="466.649" y1="135.331" x2="508.155" y2="187.162"/>
				</g>
			</g>
			<polygon style="fill:#E9EFFF;" points="346.828,359.823 333.52,414.206 404.897,414.206 395.059,359.823 			"/>
			<polygon style="fill:#7DA2FF;" points="346.828,359.823 344.915,367.641 396.473,367.641 395.059,359.823 			"/>
		</g>
		<g>
			<path style="fill:#BC4D88;" d="M349.289,167.957c0-13.161-11.021-23.748-24.337-23.035c-9.627,0.515-17.952,7.219-20.793,16.431
				c-1.407,4.563-1.238,8.9-0.131,12.844h-0.017c2.511,10.348,14.324,21.415,19.624,25.957c1.49,1.277,3.678,1.277,5.168,0
				c5.3-4.542,17.114-15.609,19.624-25.957h-0.017C348.969,172.21,349.289,170.122,349.289,167.957z"/>
			<path style="fill:#E1625D;" d="M329.439,257.29c0-5.078-4.252-9.162-9.39-8.887c-3.714,0.199-6.926,2.785-8.022,6.339
				c-0.543,1.76-0.478,3.434-0.05,4.956h-0.007c0.969,3.992,5.527,8.262,7.571,10.014c0.575,0.493,1.419,0.493,1.994,0
				c2.045-1.752,6.603-6.022,7.571-10.014h-0.006C329.316,258.931,329.439,258.125,329.439,257.29z"/>
			<path style="fill:#E1625D;" d="M463.236,173.338c0-5.078-4.252-9.162-9.39-8.888c-3.714,0.199-6.926,2.785-8.022,6.339
				c-0.543,1.76-0.478,3.434-0.05,4.956h-0.006c0.969,3.992,5.527,8.262,7.571,10.015c0.575,0.493,1.419,0.493,1.994,0
				c2.045-1.752,6.603-6.022,7.571-10.015h-0.007C463.112,174.979,463.236,174.173,463.236,173.338z"/>
			<path style="fill:#E1625D;" d="M400.834,264.95c0-5.078-4.252-9.162-9.39-8.887c-3.714,0.199-6.926,2.785-8.022,6.339
				c-0.543,1.76-0.478,3.434-0.05,4.956h-0.006c0.969,3.992,5.527,8.262,7.571,10.014c0.575,0.493,1.419,0.493,1.994,0
				c2.045-1.752,6.603-6.022,7.571-10.014h-0.006C400.711,266.591,400.834,265.786,400.834,264.95z"/>
			<path style="fill:#E1625D;" d="M275.918,216.824c0-5.078-4.252-9.162-9.39-8.887c-3.714,0.199-6.926,2.785-8.022,6.339
				c-0.543,1.76-0.478,3.434-0.05,4.956h-0.007c0.969,3.992,5.527,8.262,7.571,10.015c0.575,0.493,1.419,0.493,1.994,0
				c2.045-1.752,6.603-6.022,7.571-10.015h-0.006C275.795,218.464,275.918,217.659,275.918,216.824z"/>
			<polygon style="fill:#FFFFFF;" points="329.357,160.021 329.357,165.558 323.82,160.021 317.792,165.558 317.792,181.306 
				334.648,181.306 334.648,168.265 334.648,165.558 334.648,160.021 			"/>
		</g>
		
			<linearGradient id="SVGID_00000163758879380233508540000015962509174007945099_" gradientUnits="userSpaceOnUse" x1="443.7649" y1="157.2322" x2="251.7652" y2="307.5303">
			<stop  offset="0" style="stop-color:#FFFFFF;stop-opacity:0.7"/>
			<stop  offset="1" style="stop-color:#FFFFFF;stop-opacity:0"/>
		</linearGradient>
		<polygon style="fill:url(#SVGID_00000163758879380233508540000015962509174007945099_);" points="215.692,319.036 
			482.055,118.502 514.616,118.502 246.889,319.036 		"/>
	</g>
	<g>
		<g>
			
				<line style="fill:none;stroke:#98A3F4;stroke-linecap:round;stroke-linejoin:round;stroke-miterlimit:10;" x1="418.071" y1="62.748" x2="418.071" y2="67.636"/>
			
				<line style="fill:none;stroke:#98A3F4;stroke-linecap:round;stroke-linejoin:round;stroke-miterlimit:10;" x1="418.071" y1="70.085" x2="418.071" y2="74.973"/>
			
				<line style="fill:none;stroke:#98A3F4;stroke-linecap:round;stroke-linejoin:round;stroke-miterlimit:10;" x1="424.183" y1="68.861" x2="419.295" y2="68.861"/>
			
				<line style="fill:none;stroke:#98A3F4;stroke-linecap:round;stroke-linejoin:round;stroke-miterlimit:10;" x1="416.847" y1="68.861" x2="411.959" y2="68.861"/>
		</g>
		<path style="fill:none;stroke:#98A3F4;stroke-linecap:round;stroke-linejoin:round;stroke-miterlimit:10;" d="M332.495,42.219
			c0,1.688-1.368,3.056-3.056,3.056c-1.688,0-3.056-1.368-3.056-3.056c0-1.688,1.368-3.056,3.056-3.056
			C331.127,39.163,332.495,40.531,332.495,42.219z"/>
	</g>
	<g>
		<g>
			
				<line style="fill:none;stroke:#98A3F4;stroke-linecap:round;stroke-linejoin:round;stroke-miterlimit:10;" x1="602.204" y1="212.657" x2="602.204" y2="217.545"/>
			
				<line style="fill:none;stroke:#98A3F4;stroke-linecap:round;stroke-linejoin:round;stroke-miterlimit:10;" x1="602.204" y1="219.993" x2="602.204" y2="224.882"/>
			
				<line style="fill:none;stroke:#98A3F4;stroke-linecap:round;stroke-linejoin:round;stroke-miterlimit:10;" x1="608.317" y1="218.769" x2="603.428" y2="218.769"/>
			
				<line style="fill:none;stroke:#98A3F4;stroke-linecap:round;stroke-linejoin:round;stroke-miterlimit:10;" x1="600.98" y1="218.769" x2="596.092" y2="218.769"/>
		</g>
		<g>
			
				<line style="fill:none;stroke:#98A3F4;stroke-linecap:round;stroke-linejoin:round;stroke-miterlimit:10;" x1="629.72" y1="312.924" x2="629.72" y2="317.813"/>
			
				<line style="fill:none;stroke:#98A3F4;stroke-linecap:round;stroke-linejoin:round;stroke-miterlimit:10;" x1="629.72" y1="320.26" x2="629.72" y2="325.149"/>
			
				<line style="fill:none;stroke:#98A3F4;stroke-linecap:round;stroke-linejoin:round;stroke-miterlimit:10;" x1="635.832" y1="319.036" x2="630.944" y2="319.036"/>
			
				<line style="fill:none;stroke:#98A3F4;stroke-linecap:round;stroke-linejoin:round;stroke-miterlimit:10;" x1="628.496" y1="319.036" x2="623.608" y2="319.036"/>
		</g>
		<g>
			
				<line style="fill:none;stroke:#98A3F4;stroke-linecap:round;stroke-linejoin:round;stroke-miterlimit:10;" x1="671.76" y1="271.63" x2="671.76" y2="276.518"/>
			
				<line style="fill:none;stroke:#98A3F4;stroke-linecap:round;stroke-linejoin:round;stroke-miterlimit:10;" x1="671.76" y1="278.966" x2="671.76" y2="283.854"/>
			
				<line style="fill:none;stroke:#98A3F4;stroke-linecap:round;stroke-linejoin:round;stroke-miterlimit:10;" x1="677.873" y1="277.742" x2="672.984" y2="277.742"/>
			
				<line style="fill:none;stroke:#98A3F4;stroke-linecap:round;stroke-linejoin:round;stroke-miterlimit:10;" x1="670.536" y1="277.742" x2="665.648" y2="277.742"/>
		</g>
		<path style="fill:none;stroke:#98A3F4;stroke-linecap:round;stroke-linejoin:round;stroke-miterlimit:10;" d="M654.044,245.655
			c0,1.688-1.368,3.056-3.056,3.056c-1.688,0-3.056-1.368-3.056-3.056s1.368-3.056,3.056-3.056
			C652.675,242.598,654.044,243.967,654.044,245.655z"/>
		<path style="fill:none;stroke:#98A3F4;stroke-linecap:round;stroke-linejoin:round;stroke-miterlimit:10;" d="M636.444,166.779
			c0,1.688-1.368,3.056-3.056,3.056c-1.688,0-3.056-1.368-3.056-3.056c0-1.688,1.368-3.056,3.056-3.056
			C635.076,163.723,636.444,165.092,636.444,166.779z"/>
	</g>
	<g>
		<g>
			
				<line style="fill:none;stroke:#98A3F4;stroke-linecap:round;stroke-linejoin:round;stroke-miterlimit:10;" x1="136.634" y1="181.362" x2="136.634" y2="186.251"/>
			
				<line style="fill:none;stroke:#98A3F4;stroke-linecap:round;stroke-linejoin:round;stroke-miterlimit:10;" x1="136.634" y1="188.699" x2="136.634" y2="193.587"/>
			
				<line style="fill:none;stroke:#98A3F4;stroke-linecap:round;stroke-linejoin:round;stroke-miterlimit:10;" x1="142.746" y1="187.475" x2="137.858" y2="187.475"/>
			
				<line style="fill:none;stroke:#98A3F4;stroke-linecap:round;stroke-linejoin:round;stroke-miterlimit:10;" x1="135.41" y1="187.475" x2="130.522" y2="187.475"/>
		</g>
		<g>
			
				<line style="fill:none;stroke:#98A3F4;stroke-linecap:round;stroke-linejoin:round;stroke-miterlimit:10;" x1="97.794" y1="242.277" x2="97.794" y2="247.165"/>
			
				<line style="fill:none;stroke:#98A3F4;stroke-linecap:round;stroke-linejoin:round;stroke-miterlimit:10;" x1="97.794" y1="249.613" x2="97.794" y2="254.502"/>
			
				<line style="fill:none;stroke:#98A3F4;stroke-linecap:round;stroke-linejoin:round;stroke-miterlimit:10;" x1="103.906" y1="248.389" x2="99.018" y2="248.389"/>
			
				<line style="fill:none;stroke:#98A3F4;stroke-linecap:round;stroke-linejoin:round;stroke-miterlimit:10;" x1="96.57" y1="248.389" x2="91.682" y2="248.389"/>
		</g>
		<path style="fill:none;stroke:#98A3F4;stroke-linecap:round;stroke-linejoin:round;stroke-miterlimit:10;" d="M97.794,291.455
			c0,1.688-1.368,3.056-3.056,3.056c-1.688,0-3.056-1.368-3.056-3.056c0-1.688,1.368-3.056,3.056-3.056
			C96.426,288.399,97.794,289.768,97.794,291.455z"/>
		<path style="fill:none;stroke:#98A3F4;stroke-linecap:round;stroke-linejoin:round;stroke-miterlimit:10;" d="M99.626,156.965
			c0,1.688-1.368,3.056-3.056,3.056s-3.056-1.368-3.056-3.056c0-1.688,1.368-3.056,3.056-3.056S99.626,155.277,99.626,156.965z"/>
		<path style="fill:none;stroke:#98A3F4;stroke-linecap:round;stroke-linejoin:round;stroke-miterlimit:10;" d="M177.443,160.021
			c0,1.688-1.368,3.056-3.056,3.056c-1.688,0-3.056-1.368-3.056-3.056c0-1.688,1.368-3.056,3.056-3.056
			C176.074,156.965,177.443,158.333,177.443,160.021z"/>
	</g>
	<g>
		<path style="fill:#E5827C;" d="M492.996,220.924c0,0-3.568,5.537-5.66,11.689c0,0-1.938-0.431-2.953,1.046
			c-1.015,1.477,0.738,3.23,0.738,3.23s-2.215,3.414-1.476,7.29c0.738,3.876,8.305,6.459,8.305,6.459l-2.03,4.522
			c0,0,3.691,0.923,5.167,2.676l4.06-8.951c0,0,5.168-0.184,6.275-3.599c1.107-3.414-0.738-7.936-5.075-4.706
			C500.347,240.579,489.889,231.813,492.996,220.924z"/>
		<path style="fill:#252E64;" d="M518.064,228.306c0,0,2.307-6.09-0.923-12.55c-3.23-6.459-11.442-7.844-19.563-4.152
			c0,0-2.399-5.26-9.412-2.768c-6.961,2.473-7.82,13.762-0.162,21.96c2.103-5.383,4.991-9.872,4.991-9.872
			c-3.107,10.889,7.351,19.655,7.351,19.655c4.337-3.23,6.183,1.292,5.075,4.706c-1.107,3.414-6.275,3.599-6.275,3.599l-1.981,4.368
			l0,0c0,0,2.719,5.967,10.286,3.014c7.567-2.953,11.996-14.488,12.365-19.563C520.187,231.628,518.064,228.306,518.064,228.306z"/>
		<path style="fill:#ECB32B;" d="M489.92,255.159c0,0-4.177-0.092-6.426,3.137c-2.249,3.23-13.691,38.387-15.536,45.862
			c-1.846,7.474-1.2,8.028-1.2,8.028s20.004,5.168,27.858,1.292c0,0,1.579-23.069,1.948-30.451
			c0.369-7.382,2.491-19.844-1.476-25.192C495.087,257.835,492.965,255.621,489.92,255.159z"/>
		<path style="fill:#211D35;" d="M466.758,312.187c0,0-0.242-0.216-0.002-2.109l-0.108-0.013c0,0-8.967,50.106-10.239,53.576
			c-1.273,3.47-10.311,37.039-14.422,47.668c0,0,5.302,4.513,9.06,3.846c0,0,12.332-25.899,15.334-36.119
			c3.002-10.221,1.623-12.009,1.699-13.447c0.076-1.438,26.535-52.109,26.535-52.109
			C486.762,317.354,466.758,312.187,466.758,312.187z"/>
		<path style="fill:#4358BC;" d="M441.987,411.307c0,0-10.387,8.875-11.987,10.966h21.347c0,0,0.408-3.618-0.511-7.1
			C447.094,415.645,441.987,411.307,441.987,411.307z"/>
		<path style="fill:#4358BC;" d="M494.964,414.206c-3.199,2.082-9.843,0-9.843,0s-9.105,5.977-10.704,8.068h21.347
			C495.764,422.274,496.256,417.949,494.964,414.206z"/>
		<path style="fill:#CC9527;" d="M489.92,255.159c0,0-6.644-1.507-19.071,2.676c-12.427,4.183-12.427,4.183-12.427,4.183
			s0.861,7.259,6.521,10.95c5.66,3.691,17.12,4.552,19.018,2.092C485.86,272.6,489.92,255.159,489.92,255.159z"/>
		<g>
			<path style="fill:#873548;" d="M503.761,243.255c-0.202-0.589-0.566-1.022-0.952-1.04c-0.202-0.02-0.443,0.003-0.537,0.085
				c-0.141,0.066-0.307,0.255-0.451,0.444c-0.307,0.398-0.568,0.895-0.85,1.387c-0.276,0.499-0.555,1.011-0.901,1.524
				c-0.056-0.619,0.022-1.223,0.176-1.811c0.153-0.591,0.391-1.163,0.781-1.706c0.227-0.253,0.449-0.534,0.855-0.697
				c0.439-0.154,0.82-0.118,1.171,0.037c0.365,0.151,0.647,0.486,0.736,0.819C503.883,242.633,503.87,242.961,503.761,243.255z"/>
		</g>
		<path style="fill:#873548;" d="M485.121,239.38l5.475,1.846c0,0-1.107,3.814-4.798,3.507S485.121,239.38,485.121,239.38z"/>
		<path style="fill:#252E64;" d="M492.087,233.57c-0.46,1.06-1.376,1.683-2.046,1.392c-0.67-0.291-0.841-1.385-0.381-2.445
			c0.46-1.06,1.376-1.683,2.046-1.392S492.546,232.51,492.087,233.57z"/>
		<polygon style="fill:#242C67;" points="473.925,261.649 419.235,215.203 411.959,223.635 466.649,270.082 		"/>
		<path style="fill:#FFDF9F;" d="M489.92,255.159c0,0-5.492-1.437-10.458,13.152c0,0-1.538,4.75-2.553,5.211
			c-1.015,0.461-5.537-3.414-12.55-6.552c-7.013-3.138-12.919-7.475-12.919-7.475s-3.23,3.968-3.414,7.382
			c0,0,20.855,16.795,28.883,20.578c8.028,3.783,13.657-4.614,15.687-11.073c2.03-6.459,4.917-13.188,3.968-15.46
			C495.614,258.651,494.534,256.082,489.92,255.159z"/>
		<path style="fill:#E5827C;" d="M429.785,238.774c0,0-0.676,2.911,0.431,4.942c1.107,2.031,1.107,2.031,1.107,2.031
			s0.554,4.429,2.953,5.906c2.399,1.477,5.52,1.621,8.204-2.096l-2.846-2.417c0,0,2.208-7.022,1.193-9.236
			c-1.015-2.215-6.462-0.904-7.983,3.47L429.785,238.774z"/>
		<path style="fill:#E5827C;" d="M448.026,266.878c0,0-7.013-4.983-8.028-6.921c-1.015-1.938-0.363-12.818-0.363-12.818l5.027,4.269
			c0,0-1.065-2.156,0.503-2.894s4.06,1.569,4.891,3.322c0.831,1.753,0,4.153,0,4.153l1.384,3.506
			C451.44,259.496,449.41,260.88,448.026,266.878z"/>
		<path style="fill:#2B284F;" d="M491.273,361.924c-0.492-1.353,3.342-48.446,3.342-48.446c-6.208,3.063-19.998,0.478-25.509-0.74
			c0,0.001,10.478,48.263,10.663,51.954c0.185,3.691,4.983,38.123,5.352,49.513c0,0,6.644,2.082,9.843,0c0,0,1.23-28.658,0-39.24
			C493.734,364.385,491.765,363.277,491.273,361.924z"/>
		<g>
			<circle style="fill:#2B284F;" cx="389.046" cy="195.344" r="38.002"/>
			<circle style="fill:#D2D9FF;" cx="389.046" cy="195.344" r="31.594"/>
			<g>
				<defs>
					<circle id="SVGID_00000085229497638232302310000017880447649411834779_" cx="389.046" cy="195.344" r="31.594"/>
				</defs>
				<clipPath id="SVGID_00000088109110561850777950000014572305308415580569_">
					<use xlink:href="#SVGID_00000085229497638232302310000017880447649411834779_"  style="overflow:visible;"/>
				</clipPath>
				<g style="clip-path:url(#SVGID_00000088109110561850777950000014572305308415580569_);">
					
						<line style="fill:none;stroke:#FFFFFF;stroke-width:5;stroke-linecap:round;stroke-linejoin:round;stroke-miterlimit:10;" x1="293.77" y1="167.941" x2="356.622" y2="251.821"/>
					
						<line style="fill:none;stroke:#FFFFFF;stroke-width:5;stroke-linecap:round;stroke-linejoin:round;stroke-miterlimit:10;" x1="293.77" y1="297.028" x2="529.704" y2="131.204"/>
					
						<line style="fill:none;stroke:#FFFFFF;stroke-width:5;stroke-linecap:round;stroke-linejoin:round;stroke-miterlimit:10;" x1="384.388" y1="131.204" x2="432.143" y2="199.774"/>
					
						<line style="fill:none;stroke:#FFFFFF;stroke-width:5;stroke-linecap:round;stroke-linejoin:round;stroke-miterlimit:10;" x1="316.715" y1="198.563" x2="394.343" y2="145.498"/>
					
						<line style="fill:none;stroke:#FFFFFF;stroke-width:5;stroke-linecap:round;stroke-linejoin:round;stroke-miterlimit:10;" x1="338.921" y1="228.197" x2="415.675" y2="176.129"/>
					
						<line style="fill:none;stroke:#FFFFFF;stroke-width:5;stroke-linecap:round;stroke-linejoin:round;stroke-miterlimit:10;" x1="365.339" y1="342.486" x2="540.239" y2="209.371"/>
					
						<line style="fill:none;stroke:#FFFFFF;stroke-width:5;stroke-linecap:round;stroke-linejoin:round;stroke-miterlimit:10;" x1="369.08" y1="244.097" x2="441.533" y2="342.486"/>
					
						<line style="fill:none;stroke:#FFFFFF;stroke-width:5;stroke-linecap:round;stroke-linejoin:round;stroke-miterlimit:10;" x1="478.08" y1="257.208" x2="542.403" y2="342.486"/>
					
						<polyline style="fill:none;stroke:#FFFFFF;stroke-width:5;stroke-linecap:round;stroke-linejoin:round;stroke-miterlimit:10;" points="
						586.993,131.204 518.39,180.424 633.948,334.989 					"/>
					
						<line style="fill:none;stroke:#FFFFFF;stroke-width:5;stroke-linecap:round;stroke-linejoin:round;stroke-miterlimit:10;" x1="565.994" y1="244.097" x2="633.948" y2="192.906"/>
					
						<line style="fill:none;stroke:#FFFFFF;stroke-width:5;stroke-linecap:round;stroke-linejoin:round;stroke-miterlimit:10;" x1="576.15" y1="138.984" x2="624.831" y2="199.774"/>
				</g>
			</g>
			<g>
				<path style="fill:#FFFFFF;" d="M373.601,170.773c-4.679,2.544-8.618,6.704-10.785,11.579c-0.384,0.863-0.604,1.671-0.343,2.619
					c0.217,0.788,0.827,1.643,1.562,2.031c0.789,0.417,1.744,0.626,2.619,0.343c0.788-0.255,1.68-0.771,2.031-1.562
					c0.723-1.625,1.638-3.15,2.725-4.557c-0.177,0.229-0.354,0.459-0.531,0.688c1.131-1.442,2.427-2.738,3.871-3.867
					c-0.229,0.177-0.459,0.354-0.688,0.531c0.939-0.723,1.929-1.369,2.97-1.936c1.564-0.85,2.193-3.14,1.219-4.65
					C377.228,170.406,375.274,169.863,373.601,170.773L373.601,170.773z"/>
			</g>
			<path style="fill:#FFFFFF;" d="M388.19,170.525c0,2.069-1.677,3.746-3.746,3.746c-2.069,0-3.746-1.677-3.746-3.746
				s1.677-3.746,3.746-3.746C386.513,166.779,388.19,168.456,388.19,170.525z"/>
		</g>
	</g>
</g>

</svg>
