<svg width="79" height="82" viewBox="0 0 79 82" fill="none" xmlns="http://www.w3.org/2000/svg">
<path fill-rule="evenodd" clip-rule="evenodd" d="M10.0611 58.2813V76.3323C10.0611 77.2932 10.4556 78.1682 11.0884 78.8011C11.7212 79.434 12.5962 79.8284 13.5572 79.8284H73.5342C74.4951 79.8284 75.3701 79.4339 76.003 78.8011C76.6358 78.1683 77.0303 77.2933 77.0303 76.3323V43.0823C77.0303 42.1175 76.6397 41.2464 76.0069 40.6135H76.003C75.3702 39.9807 74.4952 39.5862 73.5342 39.5862H52.8042L42.5312 45.5198L42.0663 45.6487H35.9725L35.9764 47.1175C36.0077 47.4808 35.8241 47.8441 35.4764 48.0238C35.078 48.2308 33.6834 48.5902 32.6209 48.8636L32.5389 48.887L31.6912 49.1058C31.6209 49.1253 31.7537 49.1097 31.7303 49.1878C31.6444 49.4847 31.5194 49.8987 31.2577 50.4925C31.1053 50.8363 30.9608 51.1097 30.8553 51.3128C30.8006 51.4183 30.7694 51.2699 30.7694 51.3714C30.7694 51.473 30.8162 51.3558 30.9217 51.5394C30.9959 51.6722 31.0897 51.8324 31.2537 52.1253C31.3162 52.2425 31.4803 52.5081 31.6561 52.8011C32.0623 53.473 32.5545 54.2894 32.6991 54.7894C32.785 55.1058 32.7069 55.4574 32.4608 55.7035L29.0077 59.1527C28.7772 59.4066 28.4179 59.5199 28.0702 59.4222C27.5936 59.2894 26.8046 58.8089 26.285 58.4925L26.0506 58.3519C25.8084 58.2074 25.4998 58.0159 25.2498 57.8597L24.6678 57.5003C24.6053 57.5589 24.5389 57.6058 24.4608 57.6448C24.2655 57.7464 24.0155 57.8714 23.6014 58.055C23.41 58.137 23.1873 58.2073 22.9491 58.2816C22.7108 58.3558 22.4491 58.4339 22.3475 58.473C22.2889 58.6527 22.1444 59.2464 21.9959 59.8714L21.9803 59.9495C21.7694 60.8401 21.5467 61.7581 21.2967 62.2112C21.1366 62.4924 20.8319 62.6839 20.4842 62.6839L15.5389 62.6956C15.1991 62.7073 14.867 62.5276 14.6952 62.2112C14.4569 61.7737 14.2381 60.8596 14.0233 59.969C13.8631 59.301 13.7069 58.6487 13.6483 58.4729C13.5467 58.4338 13.285 58.3518 13.0506 58.2815C12.8241 58.2112 12.617 58.1487 12.4569 58.0823C12.0077 57.8909 11.6991 57.7307 11.4725 57.6135C11.328 57.5393 11.4452 57.4807 11.3475 57.4885H11.3436C11.3202 57.4924 11.2108 57.5862 10.8827 57.7854C10.6522 57.9221 10.371 58.0979 10.0624 58.2815L10.0611 58.2813ZM17.9869 35.2543C20.6002 35.2543 22.9635 36.3129 24.6783 38.0277C26.3892 39.7386 27.4517 42.1058 27.4517 44.7191C27.4517 47.3324 26.3931 49.6957 24.6783 51.4105C22.9674 53.1214 20.6002 54.18 17.9869 54.18C15.3736 54.18 13.0103 53.1214 11.2955 51.4105C9.58458 49.6996 8.52208 47.3324 8.52208 44.7191C8.52208 42.1058 9.58068 39.7425 11.2916 38.0277C13.0104 36.3129 15.3775 35.2543 17.9869 35.2543ZM23.3619 39.3441C24.7369 40.7191 25.5885 42.6214 25.5885 44.7152C25.5885 46.8129 24.7369 48.7113 23.3619 50.0863C21.9869 51.4574 20.0885 52.309 17.9908 52.309C15.8931 52.309 13.9947 51.4574 12.6197 50.0863C11.2447 48.7113 10.3931 46.809 10.3931 44.7152C10.3931 42.6175 11.2446 40.7191 12.6197 39.3441C13.9947 37.9691 15.8931 37.1175 17.9908 37.1175C20.0885 37.1175 21.9869 37.9651 23.3619 39.3441ZM35.9639 43.7816L35.96 42.223C35.96 41.8597 35.7529 41.5472 35.4483 41.391C35.0029 41.1605 33.9366 40.891 33.1045 40.68C32.7959 40.6019 32.5185 40.5316 32.3349 40.4808L31.7802 40.3402C31.3857 39.0707 31.0498 38.4652 30.8505 38.1019C30.7998 38.0159 30.7841 38.0823 30.7763 38.0238V38.0198C30.7646 37.9144 30.8662 37.9886 31.0732 37.637C31.6084 36.7152 32.1044 35.7659 32.6123 34.8284C32.8115 34.4612 32.7373 34.0159 32.4561 33.7307L31.4639 32.7346H46.2879C46.8035 32.7346 47.2215 32.3167 47.2215 31.8011C47.2215 31.2893 46.8035 30.8714 46.2879 30.8714H29.6039L28.975 30.2425C28.7015 29.969 28.2992 29.9026 27.9633 30.0393C27.4633 30.2268 26.3344 30.887 25.6938 31.262C25.4438 31.4183 25.1742 31.5667 24.9164 31.7191C24.682 31.8558 24.7289 31.9183 24.6508 31.9222C24.5649 31.9261 24.6586 31.8792 24.5141 31.805C24.3539 31.723 24.1469 31.6136 23.7758 31.4495C23.1664 31.1761 22.7485 31.055 22.4516 30.9691C22.3891 30.9534 22.4086 31.0823 22.3891 31.012L22.186 30.2386C21.9086 29.1644 21.5063 27.6058 21.2914 27.2191C21.1235 26.9144 20.8071 26.7425 20.4789 26.7425V26.7386H18.9242L18.9203 1.86362H59.7603V9.34412C59.7603 9.85974 60.1783 10.2777 60.6939 10.2777H68.1705V37.7227H52.5575L52.0927 37.8516L41.8197 43.7852L35.9639 43.7816ZM17.0579 26.7306V0.93359C17.0579 0.42187 17.4759 0 17.9915 0H60.7105L60.7222 0.00390625H60.7573L60.7691 0.0078125H60.7808L60.7925 0.0117178L60.8589 0.0195312L60.8667 0.0234375L60.8784 0.0273438C60.9019 0.0312497 60.9214 0.0390618 60.9448 0.0429678L60.9566 0.046875L61.0113 0.0625L61.023 0.0664062L61.0308 0.0703125C61.0659 0.0859375 61.1011 0.0976565 61.1363 0.117188L61.148 0.125L61.1558 0.132812L61.1636 0.136718L61.1948 0.15625L61.2261 0.1875L61.2339 0.191406V0.195312L61.2456 0.203125L61.2652 0.222656L61.273 0.226562L61.3198 0.273438L61.3277 0.277344L69.7808 8.73044L69.7886 8.74216L69.7964 8.74998V8.75388L69.812 8.76951V8.77341L69.8198 8.78513L69.8237 8.79294L69.8354 8.80466L69.8394 8.81248L69.8511 8.82419L69.855 8.83201L69.8667 8.84373L69.8706 8.85154L69.8745 8.85544L69.8823 8.87107L69.8862 8.87498L69.894 8.88669L69.8979 8.8906L69.9019 8.89841L69.9058 8.91013L69.9097 8.91404L69.9136 8.92185L69.9214 8.93357V8.93748L69.9253 8.94529L69.9292 8.95701V8.96091L69.9331 8.96873L69.937 8.98044V8.98435L69.9409 8.99216L69.9448 9.00388V9.00779L69.9487 9.0156L69.9526 9.02732V9.03123L69.98 9.11326L69.9839 9.12107V9.12498L69.9878 9.13669L69.9917 9.14451V9.14841L69.9956 9.16013L69.9995 9.16794V9.17185L70.0034 9.19138V9.19529L70.0073 9.20701V9.21873L70.0112 9.23044V9.24607L70.0151 9.25779V9.26951L70.019 9.28123V9.42967L70.0151 37.7227H73.5151C74.9917 37.7227 76.3315 38.3281 77.3003 39.2969C78.273 40.2734 78.8745 41.6133 78.8745 43.0821V76.3321C78.8745 77.8087 78.273 79.1485 77.3003 80.1173C76.3277 81.0899 74.9878 81.6915 73.5151 81.6915L13.5581 81.6954C12.0815 81.6954 10.7417 81.0899 9.77293 80.1212C8.80027 79.1485 8.19873 77.8087 8.19873 76.3321V59.3161C8.09326 59.359 7.99951 59.3942 7.91357 59.4215C7.59716 59.5075 7.2456 59.4294 6.99951 59.1833L3.52291 55.6989C3.29244 55.4723 3.19088 55.1286 3.28072 54.7926C3.41744 54.2887 3.97603 53.359 4.38622 52.6754L4.69481 52.1559C4.85887 51.8629 4.95262 51.7028 5.03075 51.5739C5.14794 51.3785 5.19872 51.4567 5.19872 51.3746C5.20263 51.2848 5.15966 51.3981 5.09716 51.2692C4.99169 51.066 4.85497 50.7965 4.71825 50.4918C4.51513 50.0348 4.39794 49.6637 4.30809 49.3668C4.25341 49.1949 4.47215 49.1754 4.37841 49.1324L4.35497 49.1246C4.1245 49.0426 3.60106 48.9137 3.03077 48.7731C2.08155 48.5387 1.01127 48.2731 0.526868 48.0231C0.222178 47.8707 0.0151483 47.5582 0.0151483 47.191L0.00343048 42.2965C-0.0278195 41.9333 0.15577 41.57 0.49952 41.3903C0.89796 41.1833 2.40182 40.7926 3.48002 40.5153L4.29643 40.3044C4.37065 40.2848 4.22612 40.3004 4.24955 40.2301C4.33549 39.9372 4.46049 39.5192 4.72221 38.9254C4.85893 38.6129 4.99565 38.3434 5.10112 38.1442C5.16362 38.0231 5.19878 38.1364 5.19878 38.0465C5.19878 37.9528 5.148 38.0504 5.03862 37.8551C4.94878 37.6989 4.8394 37.5036 4.72221 37.2926C4.49565 36.8746 4.3433 36.609 4.19487 36.3473C3.92143 35.8707 3.65581 35.402 3.36675 34.8317C3.16363 34.4762 3.21441 34.0153 3.51909 33.7145L7.00349 30.2379C7.23396 30.0074 7.5738 29.9059 7.90974 29.9996C8.39802 30.1363 10.2574 31.2223 11.0738 31.6988L11.3395 31.8551L11.359 31.8473C11.5231 31.7652 11.7457 31.652 12.152 31.4684C12.3473 31.3824 12.5934 31.2965 12.859 31.2066L13.6402 30.941C13.6988 30.7496 13.8551 30.1168 14.0074 29.4605C14.2067 28.6324 14.4098 27.7808 14.6363 27.3121C14.7731 26.9723 15.109 26.7262 15.4996 26.7262L17.0582 26.734L17.0579 26.7306ZM5.31588 34.5548L7.86278 32.0118C8.48778 32.3477 9.57758 32.9844 10.1401 33.3087C10.2455 33.3751 10.3549 33.4298 10.4604 33.4962C10.9096 33.7579 11.0932 33.8634 11.5776 33.7618C11.7963 33.7188 11.9487 33.6368 12.2065 33.5079C12.3862 33.4142 12.6362 33.2892 12.9135 33.1642C13.0034 33.1251 13.2221 33.0509 13.4604 32.9688C14.0268 32.7774 14.6792 32.5587 14.9956 32.2423L15.0581 32.172C15.3628 31.8048 15.5854 30.8634 15.8198 29.8908C15.9331 29.422 16.0464 28.9415 16.1479 28.59H19.8316C19.9878 29.1329 20.2183 30.0197 20.3941 30.6955L20.605 31.4923C20.8628 32.4259 21.1128 32.5001 21.9409 32.7423C22.1831 32.8127 22.5229 32.9103 23.0229 33.1369C23.2573 33.2423 23.4956 33.3634 23.6752 33.4533C24.0815 33.6642 24.3002 33.7736 24.6869 33.7658C25.1088 33.758 25.351 33.6134 25.8705 33.3088C26.1205 33.1603 26.3822 32.9963 26.6401 32.8595C27.0541 32.6173 27.687 32.2463 28.1284 32.008L28.519 32.3986C28.5502 32.4377 28.5854 32.4728 28.6205 32.5041L30.6557 34.5432C30.2651 35.2619 29.8784 35.9846 29.4682 36.6955C29.0386 37.4377 28.8745 37.7189 28.9331 38.2228C28.9682 38.5275 29.0698 38.711 29.23 39.0001C29.3979 39.3048 29.6753 39.8048 30.0112 40.8829L30.0542 41.0196C30.2339 41.6251 30.2807 41.7892 31.0151 42.0391C31.2065 42.1055 31.394 42.1524 31.5737 42.1954L31.8315 42.2618C32.019 42.3165 32.3198 42.3907 32.6597 42.4766C33.1401 42.5977 33.7066 42.7422 34.1128 42.8594L34.1206 46.5274C33.6088 46.6798 32.8159 46.8829 32.1636 47.0509L32.0854 47.0665C31.8315 47.1329 31.5932 47.1915 31.2065 47.297C30.2729 47.5548 30.1948 47.8126 29.9487 48.6447C29.8784 48.8829 29.7768 49.2228 29.5581 49.7189C29.4019 50.0704 29.2964 50.2775 29.2144 50.4298C29.019 50.8048 28.9136 51.004 28.9175 51.3673C28.9253 51.7618 29.0503 51.9806 29.3198 52.4415C29.4136 52.6056 29.5347 52.8087 29.6284 52.9845C29.7651 53.2306 29.9097 53.4728 30.0659 53.7345C30.2807 54.0899 30.5268 54.4923 30.6987 54.8087L28.1206 57.3829C27.8433 57.2305 27.5034 57.0235 27.2417 56.8712C27.1636 56.8165 27.0737 56.7696 26.9956 56.7188C26.6011 56.4844 26.398 56.3594 26.2261 56.2501C25.5855 55.8555 25.2769 55.6641 24.8472 55.6212C24.398 55.5743 24.1402 55.6915 23.6831 55.9258L23.6128 55.9571C23.4097 56.0626 23.1479 56.1954 22.855 56.3243C22.7612 56.3634 22.5854 56.4219 22.3979 56.4766C21.894 56.629 21.3354 56.8008 20.9877 57.1485L20.9213 57.2188C20.6284 57.5782 20.4096 58.4727 20.183 59.4102L20.1596 59.4883C20.0463 59.961 19.9291 60.4454 19.8276 60.7969L16.144 60.8087C16.0424 60.4571 15.9291 59.9805 15.8159 59.5118C15.5776 58.5274 15.3471 57.5665 15.0463 57.2071L14.9838 57.1407C14.644 56.8047 14.0776 56.6289 13.5854 56.4805H13.5815C13.4214 56.4297 13.269 56.3828 13.1753 56.3438C12.7886 56.1797 12.5151 56.0391 12.312 55.9336C11.8511 55.6953 11.6089 55.5703 11.1558 55.6133C10.7495 55.6524 10.4722 55.8242 9.89799 56.1797C9.68705 56.3086 9.42533 56.4688 9.01908 56.7071L8.73002 56.8789C8.47221 57.0313 8.14018 57.2305 7.85893 57.3829L5.28083 54.797C5.47224 54.4415 5.74958 53.9766 5.98005 53.5938C6.09724 53.3985 6.19489 53.2306 6.30817 53.0313C6.40192 52.8634 6.52301 52.6603 6.62458 52.4923C6.90974 52.0157 7.04646 51.7892 7.05817 51.3868C7.06989 51.0118 6.96052 50.797 6.75348 50.3868C6.67927 50.2384 6.5777 50.043 6.42926 49.7032C6.2652 49.3321 6.16754 49.0235 6.08942 48.7774C5.85895 48.047 5.72614 47.6172 5.02692 47.3555L4.97224 47.336C4.64411 47.2227 4.08552 47.0821 3.48004 46.9336C2.91363 46.7969 2.30034 46.6446 1.87454 46.5157L1.86673 42.8438C2.41361 42.6836 3.27693 42.461 3.95263 42.2852L4.78856 42.0664C5.71434 41.8125 5.79246 41.5586 6.03466 40.7266C6.10498 40.4884 6.20654 40.1485 6.4292 39.6446C6.58154 39.3048 6.6831 39.1056 6.75731 38.961C6.95653 38.5704 7.06201 38.3634 7.0581 37.9962C7.05419 37.5939 6.92529 37.3751 6.65576 36.9064C6.58154 36.7775 6.48779 36.6134 6.35888 36.3791C6.22216 36.1252 6.01512 35.7658 5.81199 35.4064C5.64402 35.1408 5.47603 34.8517 5.31588 34.5548ZM34.3079 27.629H46.2879C46.8035 27.629 47.2215 27.211 47.2215 26.6954C47.2215 26.1837 46.8035 25.7657 46.2879 25.7657H34.3079C33.7923 25.7657 33.3743 26.1837 33.3743 26.6954C33.3782 27.211 33.7962 27.629 34.3079 27.629ZM54.1009 29.1017C53.7493 28.7267 53.7689 28.1407 54.1399 27.7853C54.5149 27.4337 55.1009 27.4533 55.4524 27.8244L56.3392 28.7658L58.5345 26.6056C57.9642 26.1603 57.2454 25.8946 56.4642 25.8946C55.5384 25.8946 54.6986 26.2696 54.0931 26.8751H54.0892C53.4837 27.4806 53.1126 28.3204 53.1126 29.2462C53.1126 30.1564 53.4681 30.9767 54.0501 31.5782L54.0931 31.6173C54.6985 32.2227 55.5384 32.5977 56.4642 32.5977C57.3939 32.5977 58.2337 32.2227 58.8392 31.6173C59.4447 31.0118 59.8196 30.172 59.8196 29.2423C59.8196 28.8516 59.7532 28.4766 59.6321 28.129L56.9524 30.7657C56.5774 31.1172 55.9915 31.0977 55.6399 30.7266L54.1009 29.1017ZM59.8704 25.297C58.9563 24.5079 57.7649 24.0314 56.4681 24.0314C55.0267 24.0314 53.722 24.6173 52.7806 25.5626C51.8353 26.5079 51.2494 27.8126 51.2494 29.2501C51.2494 30.6603 51.8119 31.9415 52.726 32.8829L52.7768 32.9376C53.7221 33.8829 55.0268 34.4688 56.4682 34.4688C57.9057 34.4688 59.2104 33.8828 60.1518 32.9415L60.1557 32.9376C61.101 31.9923 61.683 30.6915 61.683 29.2501C61.683 28.3438 61.4486 27.4923 61.0424 26.7501L62.769 25.0509C63.1361 24.6915 63.14 24.1017 62.7807 23.7345C62.4213 23.3673 61.8315 23.3634 61.4682 23.7228L59.8704 25.297ZM24.9724 20.5392H46.2884C46.804 20.5392 47.222 20.1212 47.222 19.6056C47.222 19.09 46.804 18.672 46.2884 18.672H24.9724C24.4567 18.672 24.0388 19.09 24.0388 19.6056C24.0427 20.1212 24.4607 20.5392 24.9724 20.5392ZM34.3083 15.4298H46.2883C46.8039 15.4298 47.2219 15.0118 47.2219 14.4962C47.2219 13.9806 46.8039 13.5626 46.2883 13.5626H34.3083C33.7927 13.5626 33.3747 13.9806 33.3747 14.4962C33.3786 15.0157 33.7966 15.4298 34.3083 15.4298ZM54.1013 16.9025C53.7497 16.5275 53.7693 15.9416 54.1403 15.5861C54.5153 15.2345 55.1013 15.2541 55.4528 15.6252L56.3396 16.5666L58.5349 14.4064C57.9646 13.9611 57.2458 13.6954 56.4646 13.6954C55.5388 13.6954 54.699 14.0704 54.0935 14.6759H54.0896C53.4841 15.2814 53.113 16.1173 53.113 17.047C53.113 17.9532 53.4685 18.7775 54.0505 19.3751L54.0935 19.4181C54.6989 20.0235 55.5388 20.3985 56.4646 20.3985C57.3943 20.3985 58.2341 20.0235 58.8357 19.4181L58.8396 19.4142C59.445 18.8087 59.82 17.9689 59.82 17.0431C59.82 16.6524 59.7536 16.2774 59.6325 15.9298L56.9528 18.5665C56.5778 18.918 55.9919 18.8985 55.6403 18.5274L54.1013 16.9025ZM59.8708 13.0978C58.9567 12.3087 57.7653 11.8322 56.4685 11.8322C55.0271 11.8322 53.7224 12.4181 52.781 13.3634C51.8357 14.3087 51.2498 15.6134 51.2498 17.0509C51.2498 18.4611 51.8123 19.7423 52.7264 20.6837L52.7772 20.7423C53.7225 21.6876 55.0272 22.2696 56.4686 22.2696C57.9022 22.2696 59.2069 21.6876 60.1522 20.7423L60.1561 20.7345C61.1014 19.7892 61.6834 18.4884 61.6834 17.0509C61.6834 16.1446 61.4529 15.2931 61.0427 14.547L62.7693 12.8478C63.1365 12.4884 63.1404 11.8986 62.7811 11.5314C62.4217 11.1681 61.8318 11.1603 61.4686 11.5197L59.8708 13.0978ZM66.8552 8.41029L61.6247 3.17979V8.41029H66.8552ZM55.8002 53.9453C55.4955 53.9453 55.2142 53.8164 55.0111 53.6172C54.808 53.414 54.683 53.1328 54.683 52.8281V47.9492C54.683 47.6406 54.808 47.3594 55.0111 47.1562C55.2142 46.957 55.4916 46.8281 55.8002 46.8281H70.0462C70.3548 46.8281 70.636 46.9531 70.8391 47.1562C71.0423 47.3555 71.1673 47.6367 71.1673 47.9492V52.8281C71.1673 53.1367 71.0423 53.414 70.8431 53.6172H70.8391C70.636 53.8164 70.3587 53.9453 70.0501 53.9453H55.8002ZM70.0502 55.8086H55.8002C54.9799 55.8086 54.2338 55.4727 53.6947 54.9336C53.1556 54.3945 52.8197 53.6484 52.8197 52.8281V47.9492C52.8197 47.1289 53.1556 46.3828 53.6947 45.8437V45.8398C54.2337 45.3007 54.9799 44.9648 55.8002 44.9648H70.0462C70.8665 44.9648 71.6087 45.3007 72.1517 45.8398L72.1556 45.8437C72.6946 46.3827 73.0306 47.1289 73.0306 47.9492V52.8281C73.0306 53.6445 72.6946 54.3906 72.1517 54.9336C71.6165 55.4727 70.8706 55.8086 70.0502 55.8086Z" fill="#0077FF"/>
</svg>
