<svg width="476" height="393" viewBox="0 0 476 393" fill="none" xmlns="http://www.w3.org/2000/svg">
<path d="M442.19 111.825L450.53 98.4549L446.41 95.9049C445.827 95.5341 445.358 95.0086 445.056 94.3871C444.754 93.7656 444.631 93.0724 444.7 92.3848C444.766 91.6234 444.793 90.8591 444.78 90.0949C444.753 89.3969 444.922 88.7054 445.266 88.0978C445.61 87.4902 446.117 86.9906 446.73 86.6549L450.97 84.3749L443.53 70.5049L439.29 72.7849C438.693 73.1085 438.018 73.2602 437.34 73.2231C436.662 73.186 436.008 72.9616 435.45 72.5749C434.764 72.0973 434.053 71.6567 433.32 71.2549C432.723 70.9269 432.229 70.4404 431.892 69.8492C431.555 69.258 431.388 68.5851 431.41 67.9048L431.56 63.0848L415.84 62.5948L415.69 67.4349C415.668 68.1162 415.457 68.778 415.081 69.3466C414.705 69.9152 414.178 70.3681 413.56 70.6548C413.19 70.8248 412.83 71.0148 412.47 71.2048C412.11 71.3948 411.75 71.6048 411.4 71.8148C410.821 72.1703 410.154 72.3585 409.475 72.3585C408.795 72.3585 408.129 72.1703 407.55 71.8148L403.43 69.2648L395.14 82.6348L399.27 85.1948C399.849 85.5669 400.313 86.0914 400.613 86.7107C400.913 87.33 401.037 88.02 400.97 88.7049C400.903 89.4696 400.876 90.2373 400.89 91.0048C400.913 91.7009 400.743 92.3899 400.399 92.9953C400.055 93.6008 399.55 94.099 398.94 94.4349L394.7 96.7149L402.13 110.575L406.38 108.305C406.997 107.98 407.692 107.833 408.388 107.881C409.084 107.929 409.753 108.169 410.32 108.575C410.948 109.012 411.599 109.416 412.27 109.785C412.884 110.101 413.398 110.584 413.751 111.178C414.105 111.772 414.285 112.454 414.27 113.145L414.12 118.005L429.85 118.495L430 113.665C430.028 112.976 430.247 112.309 430.632 111.737C431.017 111.165 431.552 110.711 432.18 110.425C432.53 110.255 432.88 110.085 433.23 109.895C433.58 109.705 433.91 109.515 434.23 109.325C434.818 108.96 435.497 108.767 436.19 108.767C436.882 108.767 437.561 108.96 438.15 109.325L442.19 111.825ZM430.31 101.005C428.122 102.578 425.497 103.426 422.802 103.43C420.108 103.434 417.48 102.593 415.288 101.026C413.096 99.4593 411.45 97.2449 410.582 94.6942C409.713 92.1435 409.666 89.3848 410.447 86.8059C411.227 84.227 412.796 81.9575 414.933 80.3164C417.07 78.6754 419.668 77.7453 422.361 77.6569C425.054 77.5685 427.707 78.3263 429.947 79.8236C432.187 81.321 433.902 83.4827 434.85 86.0048C435.848 88.6563 435.944 91.5631 435.124 94.2748C434.303 96.9866 432.611 99.352 430.31 101.005Z" fill="#EBEBEB"/>
<path d="M30.0599 235.385C30.4772 235.632 30.8178 235.99 31.0438 236.419C31.2698 236.848 31.3723 237.331 31.3399 237.815C31.3399 238.085 31.3399 238.355 31.3399 238.625C31.3399 238.895 31.3399 239.175 31.3399 239.445C31.3725 239.926 31.2711 240.407 31.047 240.834C30.8228 241.262 30.4846 241.618 30.0699 241.865L27.1299 243.585L32.6399 253.135L35.5299 251.445C35.9517 251.203 36.4331 251.084 36.9192 251.101C37.4053 251.119 37.8768 251.273 38.2799 251.545C38.7383 251.843 39.2123 252.117 39.6999 252.365C40.1326 252.582 40.497 252.915 40.7529 253.326C41.0087 253.737 41.1461 254.211 41.1499 254.695V258.065H52.1499V254.695C52.1629 254.208 52.3109 253.734 52.5776 253.326C52.8442 252.918 53.2189 252.592 53.6599 252.385C54.1475 252.137 54.6215 251.863 55.0799 251.565C55.483 251.293 55.9544 251.139 56.4406 251.121C56.9267 251.104 57.408 251.223 57.8299 251.465L60.7599 253.155L66.2699 243.605L63.3299 241.905C62.9126 241.66 62.5717 241.304 62.3456 240.877C62.1195 240.449 62.0171 239.967 62.0499 239.485C62.0499 239.215 62.0499 238.945 62.0499 238.675C62.0499 238.405 62.0499 238.135 62.0499 237.865C62.0079 237.373 62.1057 236.879 62.3322 236.44C62.5587 236.001 62.9045 235.636 63.3299 235.385L66.2699 233.695L60.7599 224.145L57.8399 225.835C57.4182 226.076 56.9378 226.196 56.4521 226.18C55.9665 226.164 55.4948 226.013 55.0899 225.745C54.6282 225.443 54.1508 225.166 53.6599 224.915C53.2271 224.698 52.8627 224.365 52.6069 223.954C52.351 223.543 52.2137 223.069 52.2099 222.585V219.215H41.2099V222.585C41.2061 223.069 41.0687 223.543 40.8129 223.954C40.557 224.365 40.1926 224.698 39.7599 224.915C39.2689 225.166 38.7916 225.443 38.3299 225.745C37.9249 226.013 37.4533 226.164 36.9677 226.18C36.482 226.196 36.0015 226.076 35.5799 225.835L32.6599 224.145L27.1499 233.695L30.0599 235.385ZM46.6999 229.595C48.4799 229.595 50.22 230.123 51.7 231.112C53.1801 232.101 54.3336 233.506 55.0148 235.151C55.696 236.795 55.8742 238.605 55.527 240.351C55.1797 242.097 54.3225 243.7 53.0638 244.959C51.8052 246.218 50.2015 247.075 48.4557 247.422C46.7099 247.769 44.9003 247.591 43.2557 246.91C41.6112 246.229 40.2056 245.075 39.2167 243.595C38.2277 242.115 37.6999 240.375 37.6999 238.595C37.7078 236.213 38.6595 233.932 40.3465 232.25C42.0335 230.569 44.3181 229.625 46.6999 229.625V229.595Z" fill="#EBEBEB"/>
<path d="M374.6 59.5648L371.39 45.8348L367.16 46.8348C366.557 46.9708 365.928 46.9362 365.343 46.7349C364.759 46.5335 364.242 46.1734 363.85 45.6948C363.411 45.1662 362.94 44.6653 362.44 44.1948C361.983 43.7671 361.653 43.2212 361.487 42.6176C361.321 42.0139 361.326 41.3761 361.5 40.7748L362.74 36.6448L349.24 32.5648L347.99 36.7048C347.819 37.2883 347.489 37.8126 347.037 38.2188C346.585 38.6251 346.028 38.8973 345.43 39.0048C344.691 39.1345 343.96 39.3048 343.24 39.5148C342.654 39.6876 342.032 39.6931 341.444 39.5305C340.855 39.3679 340.324 39.0438 339.91 38.5948L336.91 35.4548L326.64 45.1048L329.64 48.2648C330.057 48.7107 330.343 49.2636 330.465 49.8622C330.587 50.4607 330.54 51.0813 330.33 51.6548C330.21 52.0048 330.09 52.3448 329.98 52.6548C329.87 52.9648 329.78 53.3648 329.7 53.7148C329.555 54.3073 329.25 54.8485 328.818 55.2789C328.386 55.7094 327.843 56.0124 327.25 56.1548L323.02 57.1548L326.24 70.8848L330.48 69.8848C331.084 69.7511 331.713 69.7878 332.298 69.9909C332.882 70.194 333.399 70.5554 333.79 71.0348C334.23 71.5588 334.698 72.0594 335.19 72.5348C335.647 72.9603 335.977 73.5044 336.143 74.1066C336.309 74.7087 336.305 75.3451 336.13 75.9448L334.88 80.0748L348.38 84.1548L349.63 80.0148C349.817 79.4192 350.166 78.8872 350.637 78.4777C351.109 78.0682 351.684 77.7972 352.3 77.6948C352.975 77.5737 353.642 77.4168 354.3 77.2248C354.89 77.0409 355.52 77.0249 356.119 77.1786C356.717 77.3322 357.261 77.6495 357.69 78.0948L360.69 81.2748L370.97 71.6148L367.97 68.4648C367.555 68.0074 367.272 67.4449 367.154 66.8384C367.036 66.2319 367.087 65.6047 367.3 65.0248C367.42 64.6948 367.53 64.3648 367.63 64.0248C367.73 63.6848 367.82 63.3548 367.91 63.0248C368.047 62.4179 368.351 61.8613 368.787 61.4179C369.224 60.9744 369.775 60.6616 370.38 60.5148L374.6 59.5648ZM360.22 60.2348C359.828 62.6159 358.701 64.8145 356.995 66.5219C355.29 68.2293 353.093 69.3596 350.712 69.7543C348.332 70.149 345.887 69.7881 343.722 68.7223C341.557 67.6565 339.78 65.9395 338.641 63.8121C337.502 61.6848 337.058 59.2542 337.371 56.8614C337.684 54.4687 338.739 52.2341 340.387 50.4715C342.035 48.7089 344.193 47.5067 346.56 47.0338C348.926 46.5609 351.381 46.841 353.58 47.8348C355.898 48.8823 357.805 50.6654 359.005 52.9075C360.206 55.1496 360.633 57.7252 360.22 60.2348Z" fill="#EBEBEB"/>
<path d="M175.519 88.3967C181.451 51.4415 156.303 16.6742 119.347 10.7417C82.3922 4.80921 47.6249 29.9581 41.6924 66.9132C35.7599 103.868 60.9088 138.636 97.864 144.568C134.819 150.501 169.586 125.352 175.519 88.3967Z" fill="#EBEBEB"/>
<path d="M111.71 143.815C147.421 143.815 176.37 114.866 176.37 79.1549C176.37 43.4441 147.421 14.4949 111.71 14.4949C75.9991 14.4949 47.0498 43.4441 47.0498 79.1549C47.0498 114.866 75.9991 143.815 111.71 143.815Z" fill="#DBDBDB"/>
<path d="M111.71 139.735C145.167 139.735 172.29 112.612 172.29 79.1548C172.29 45.6974 145.167 18.5748 111.71 18.5748C78.2525 18.5748 51.1299 45.6974 51.1299 79.1548C51.1299 112.612 78.2525 139.735 111.71 139.735Z" fill="white"/>
<path opacity="0.5" d="M170.92 66.3049C143.33 83.0149 97.9901 110.435 72.6501 125.465C65.4858 119.425 59.8206 111.805 56.1001 103.205L139.91 25.5349C147.739 29.6586 154.571 35.4446 159.928 42.4874C165.285 49.5302 169.036 57.6593 170.92 66.3049Z" fill="#EBEBEB"/>
<path opacity="0.5" d="M172.24 81.2749C172.02 88.0128 170.667 94.6657 168.24 100.955L92.6796 136.695C89.3883 135.603 86.1966 134.232 83.1396 132.595C105.97 119.385 147.67 95.3849 172.24 81.2749Z" fill="#EBEBEB"/>
<path d="M112.29 22.9749H111.12V32.1549H112.29V22.9749Z" fill="#C7C7C7"/>
<path d="M84.1202 30.2009L83.1069 30.7859L87.6969 38.736L88.7102 38.151L84.1202 30.2009Z" fill="#C7C7C7"/>
<path d="M63.3404 50.5585L62.7554 51.5718L70.7055 56.1618L71.2905 55.1485L63.3404 50.5585Z" fill="#C7C7C7"/>
<path d="M64.7098 78.5748H55.5298V79.7448H64.7098V78.5748Z" fill="#C7C7C7"/>
<path d="M70.7089 102.171L62.7588 106.761L63.3438 107.774L71.2939 103.184L70.7089 102.171Z" fill="#C7C7C7"/>
<path d="M87.6957 119.579L83.1099 127.531L84.1234 128.116L88.7093 120.163L87.6957 119.579Z" fill="#C7C7C7"/>
<path d="M112.29 126.155H111.12V135.335H112.29V126.155Z" fill="#C7C7C7"/>
<path d="M135.709 119.574L134.695 120.159L139.285 128.109L140.299 127.524L135.709 119.574Z" fill="#C7C7C7"/>
<path d="M152.698 102.146L152.113 103.159L160.063 107.749L160.648 106.736L152.698 102.146Z" fill="#C7C7C7"/>
<path d="M167.89 78.5748H158.71V79.7448H167.89V78.5748Z" fill="#C7C7C7"/>
<path d="M160.067 50.5742L152.117 55.1642L152.702 56.1774L160.652 51.5874L160.067 50.5742Z" fill="#C7C7C7"/>
<path d="M139.286 30.2078L134.7 38.1603L135.714 38.7447L140.3 30.7922L139.286 30.2078Z" fill="#C7C7C7"/>
<path d="M112.59 27.1349L114.58 83.2449L108.84 83.1749L111.03 27.1149L112.59 27.1349Z" fill="#C7C7C7"/>
<path d="M147.54 59.5948L109.79 83.6848L107.05 78.6348L146.8 58.2148L147.54 59.5948Z" fill="#A6A6A6"/>
<path d="M113.67 79.1549C113.67 79.5505 113.553 79.9371 113.333 80.266C113.113 80.5949 112.801 80.8513 112.435 81.0027C112.07 81.154 111.668 81.1936 111.28 81.1165C110.892 81.0393 110.535 80.8488 110.256 80.5691C109.976 80.2894 109.786 79.9331 109.708 79.5451C109.631 79.1571 109.671 78.755 109.822 78.3895C109.974 78.0241 110.23 77.7117 110.559 77.492C110.888 77.2722 111.274 77.1549 111.67 77.1549C112.2 77.1549 112.709 77.3656 113.084 77.7407C113.459 78.1158 113.67 78.6245 113.67 79.1549Z" fill="#C7C7C7"/>
<path d="M404.09 261.695C404.09 261.695 388.43 258.145 379.85 250.235C371.27 242.325 366.53 228.165 366.53 228.165C372.48 229.308 378.347 230.851 384.09 232.785C386.241 234.995 388.033 237.529 389.4 240.295C389.532 238.507 389.532 236.712 389.4 234.925C391.402 235.791 393.276 236.929 394.97 238.305C402.08 244.535 404.09 261.695 404.09 261.695Z" fill="#DBDBDB"/>
<path d="M376.25 235.055C374.12 233.575 371.95 232.155 369.82 230.665C369.792 230.648 369.772 230.62 369.765 230.588C369.757 230.556 369.762 230.523 369.78 230.495C369.797 230.467 369.825 230.447 369.856 230.44C369.888 230.432 369.922 230.438 369.95 230.455C373.95 232.865 377.95 235.455 381.81 238.135C383.15 239.075 384.47 240.055 385.81 241.055L385.54 240.585C385.07 239.805 384.54 239.025 384.08 238.255C383.095 236.688 381.981 235.206 380.75 233.825C380.75 233.775 380.75 233.695 380.83 233.745C382.05 235.155 383.27 236.545 384.38 238.035C384.91 238.745 385.38 239.485 385.87 240.235C386.11 240.625 386.35 241.015 386.57 241.415L386.81 241.815C388.81 243.405 390.81 245.065 392.68 246.815C393.84 247.895 394.96 249.025 396.05 250.175C395.44 248.285 394.91 246.365 394.21 244.505C394.21 244.492 394.215 244.479 394.224 244.47C394.234 244.46 394.246 244.455 394.26 244.455C394.273 244.455 394.286 244.46 394.295 244.47C394.304 244.479 394.31 244.492 394.31 244.505C394.99 246.505 395.74 248.425 396.31 250.435C397.51 251.735 398.65 253.075 399.73 254.435C399.718 254.347 399.701 254.261 399.68 254.175C399.5 253.445 399.32 252.705 399.12 251.975C398.74 250.555 398.32 249.145 397.84 247.765C396.94 244.879 395.516 242.184 393.64 239.815C393.64 239.765 393.64 239.695 393.71 239.745C396.647 243.401 398.7 247.685 399.71 252.265C399.876 252.932 400.036 253.598 400.19 254.265C400.27 254.615 400.36 254.975 400.42 255.345C400.9 255.985 401.36 256.625 401.8 257.295C404.472 261.377 406.695 265.735 408.43 270.295C410.378 275.414 412.047 280.635 413.43 285.935C413.43 285.956 413.421 285.976 413.406 285.991C413.391 286.006 413.371 286.015 413.35 286.015C413.329 286.015 413.308 286.006 413.293 285.991C413.278 285.976 413.27 285.956 413.27 285.935C410.2 276.775 407.08 267.475 401.84 259.295C400.73 257.565 399.53 255.895 398.26 254.295C395.668 254.128 393.109 253.621 390.65 252.785C387.962 251.88 385.398 250.64 383.02 249.095C381.664 248.183 380.359 247.198 379.11 246.145C379.05 246.095 379.11 246.015 379.17 246.065C381.358 247.826 383.773 249.285 386.35 250.405C388.882 251.566 391.53 252.454 394.25 253.055C395.4 253.305 396.58 253.495 397.75 253.655C396.3 251.869 394.758 250.16 393.13 248.535C392.6 248.005 392.06 247.535 391.51 246.995C389.685 245.719 387.751 244.608 385.73 243.675C383.16 242.435 380.64 241.125 378.1 239.835C376.66 239.105 375.24 238.355 373.8 237.655C373.74 237.655 373.8 237.535 373.85 237.565C376.43 238.805 379.04 239.965 381.64 241.155C384.08 242.275 386.55 243.405 388.9 244.715L389.2 244.895C387.08 243.045 384.88 241.295 382.63 239.595C380.523 238.055 378.396 236.542 376.25 235.055Z" fill="#A6A6A6"/>
<path d="M377.14 243.125C378.42 243.685 379.71 244.175 380.97 244.765C382.23 245.355 383.5 246.085 384.73 246.765C384.742 246.771 384.751 246.783 384.754 246.796C384.758 246.809 384.756 246.823 384.75 246.835C384.743 246.847 384.732 246.856 384.719 246.859C384.706 246.863 384.692 246.861 384.68 246.855C383.43 246.255 382.17 245.695 380.93 245.075C379.69 244.455 378.41 243.755 377.11 243.185C377.05 243.195 377.08 243.095 377.14 243.125Z" fill="#A6A6A6"/>
<path d="M454.95 182.795C452.057 186.526 450.419 191.076 450.27 195.795C450.22 197.195 450.44 199.155 450.6 201.455C446.689 203.716 443.225 206.675 440.38 210.185C443.508 208.37 447.099 207.511 450.71 207.715C450.623 209.287 450.422 210.851 450.11 212.395C447.832 212.391 445.576 212.837 443.47 213.705C445.531 213.679 447.575 214.084 449.47 214.895C446.68 223.775 438.38 232.895 415.47 236.765C413.048 225.879 414.483 214.49 419.53 204.545C426.39 191.045 454.95 182.795 454.95 182.795Z" fill="#DBDBDB"/>
<path d="M407.53 274.765C407.92 270.975 408.42 267.185 409.01 263.425C410.169 255.875 411.711 248.389 413.63 240.995C414.528 237.528 415.633 234.119 416.94 230.785C416.87 230.174 416.84 229.559 416.85 228.945C416.85 228.215 416.85 227.485 416.85 226.745C416.85 225.285 416.94 223.815 417.06 222.355C417.294 219.458 417.765 216.585 418.47 213.765C418.89 212.135 419.37 210.525 419.85 208.915C419.85 208.902 419.855 208.889 419.864 208.88C419.874 208.87 419.886 208.865 419.9 208.865C419.913 208.865 419.926 208.87 419.935 208.88C419.944 208.889 419.95 208.902 419.95 208.915C419.192 211.73 418.627 214.593 418.26 217.485C417.853 220.336 417.596 223.207 417.49 226.085C417.49 226.865 417.49 227.655 417.49 228.445C417.49 228.775 417.49 229.115 417.49 229.445C418.611 226.702 419.901 224.03 421.35 221.445C423.674 217.349 426.294 213.429 429.19 209.715C429.195 209.282 429.255 208.852 429.37 208.435C429.48 207.925 429.59 207.435 429.71 206.905C429.936 205.858 430.196 204.818 430.49 203.785C431.06 201.705 431.81 199.705 432.49 197.655C432.49 197.642 432.495 197.629 432.504 197.619C432.514 197.61 432.526 197.605 432.54 197.605C432.553 197.605 432.566 197.61 432.575 197.619C432.584 197.629 432.59 197.642 432.59 197.655C431.99 199.655 431.59 201.785 431.12 203.845C430.89 204.845 430.67 205.845 430.44 206.915L430.11 208.445C430.114 208.485 430.114 208.525 430.11 208.565C431.04 207.395 431.98 206.245 432.95 205.115C437.32 199.985 442.12 195.245 446.95 190.555C447.54 189.975 448.15 189.415 448.75 188.845L448.82 188.915C444.21 193.735 439.67 198.595 435.37 203.695C434.37 204.905 433.37 206.125 432.37 207.375C432.89 207.015 433.37 206.675 433.93 206.375C435.26 205.505 436.61 204.655 438 203.875C439.39 203.095 440.79 202.335 442.22 201.625C443.65 200.915 445.22 200.305 446.68 199.485C446.74 199.485 446.79 199.555 446.73 199.575C445.281 200.244 443.884 201.019 442.55 201.895C441.16 202.715 439.76 203.555 438.4 204.425C437.04 205.295 435.7 206.115 434.4 206.985C433.28 207.705 432.19 208.495 431.03 209.165C428.321 212.588 425.817 216.167 423.53 219.885C422.145 222.219 420.88 224.622 419.74 227.085L420.56 226.725L422.66 225.795C424.01 225.195 425.36 224.615 426.71 224.025C429.28 222.905 431.89 221.885 434.41 220.655C435.831 219.989 437.208 219.231 438.53 218.385C438.59 218.385 438.64 218.435 438.58 218.475C433.89 221.715 428.58 223.995 423.42 226.295L421.17 227.295C420.55 227.565 419.93 227.875 419.29 228.115C417.751 231.556 416.458 235.101 415.42 238.725C413.365 246.019 411.696 253.415 410.42 260.885C409.11 268.365 408.22 275.885 407.54 283.465C407.45 284.405 407.36 285.345 407.26 286.295C407.26 286.374 407.228 286.451 407.172 286.507C407.116 286.563 407.039 286.595 406.96 286.595C406.88 286.595 406.804 286.563 406.748 286.507C406.691 286.451 406.66 286.374 406.66 286.295C406.74 282.385 407.14 278.585 407.53 274.765Z" fill="#A6A6A6"/>
<path d="M421.47 211.505C421.89 209.175 422.47 206.905 423.14 204.625C423.14 204.612 423.145 204.599 423.155 204.589C423.164 204.58 423.177 204.575 423.19 204.575C423.203 204.575 423.216 204.58 423.225 204.589C423.235 204.599 423.24 204.612 423.24 204.625C422.66 206.865 422.24 209.145 421.83 211.415C421.42 213.685 421.02 216.055 420.69 218.415H420.63C420.78 216.098 421.06 213.791 421.47 211.505Z" fill="#A6A6A6"/>
<path d="M431.34 217.825C432.94 216.777 434.61 215.841 436.34 215.025C437.17 214.585 438.02 214.175 438.86 213.765C439.7 213.355 440.64 212.995 441.5 212.555C441.57 212.555 441.62 212.625 441.56 212.655C440.72 213.075 439.92 213.585 439.1 214.035L436.53 215.385C434.85 216.285 433.21 217.275 431.45 218.005C431.429 218.003 431.409 217.997 431.392 217.986C431.374 217.975 431.359 217.961 431.349 217.943C431.338 217.925 431.332 217.906 431.33 217.885C431.328 217.864 431.332 217.844 431.34 217.825Z" fill="#A6A6A6"/>
<path opacity="0.1" d="M403.8 234.575C403.8 234.575 389.32 231.115 382.67 221.395C376.31 212.115 374.26 196.295 374.1 194.905C374.36 196.185 377.35 210.005 387.21 216.445C394.76 221.385 402.06 225.435 403.8 234.575Z" fill="#A6A6A6"/>
<path d="M390.43 209.545C393.006 211.914 394.858 214.966 395.77 218.345C394.702 215.048 392.86 212.055 390.4 209.615C390.31 209.575 390.38 209.495 390.43 209.545Z" fill="#A6A6A6"/>
<path d="M403.8 234.575C403.8 234.575 389.32 231.115 382.67 221.395C376.31 212.115 374.26 196.295 374.1 194.905C374.096 194.872 374.096 194.838 374.1 194.805C374.1 194.805 381.05 204.685 388.35 207.205C395.65 209.725 405.9 218.435 403.8 234.575Z" fill="#DBDBDB"/>
<path d="M376.65 200.255C377.948 202.918 379.446 205.478 381.13 207.915C382.833 210.229 384.852 212.293 387.13 214.045C389.13 215.605 391.13 217.045 393.13 218.555L393.08 218.485C392.71 217.925 392.31 217.385 391.9 216.865C391.07 215.805 390.16 214.805 389.25 213.815C387.45 211.815 385.61 209.945 384 207.815C383.099 206.65 382.319 205.397 381.67 204.075C381.67 204.015 381.74 203.985 381.77 204.075C384.12 208.965 388.82 212.075 392.16 216.235C392.639 216.821 393.086 217.432 393.5 218.065C393.832 218.523 394.114 219.016 394.34 219.535C396.172 221.007 397.83 222.685 399.28 224.535C399.153 223.586 398.959 222.647 398.7 221.725C398.365 220.434 397.846 219.198 397.16 218.055C397.16 217.995 397.22 217.935 397.25 217.995C397.957 219.139 398.525 220.365 398.94 221.645C399.245 222.659 399.423 223.707 399.47 224.765C400.184 225.739 400.835 226.758 401.42 227.815L401.24 226.885C400.96 225.445 400.64 224.005 400.24 222.575C399.558 219.675 398.381 216.914 396.76 214.415C396.76 214.355 396.81 214.305 396.85 214.355C398.508 216.826 399.807 219.519 400.71 222.355C401.17 223.775 401.54 225.215 401.86 226.675C402.02 227.385 402.17 228.105 402.3 228.825C402.37 229.195 402.45 229.575 402.51 229.955C403.947 233.11 405.069 236.399 405.86 239.775C407.276 245.81 408.305 251.929 408.94 258.095C409.693 264.55 410.027 271.047 409.94 277.545C409.94 278.355 409.88 279.165 409.84 279.985C409.84 280.195 409.51 280.225 409.5 279.985C409.36 276.765 409.28 273.555 409.09 270.335C408.9 267.115 408.62 263.915 408.27 260.715C407.621 254.42 406.619 248.167 405.27 241.985C404.1 236.685 402.58 231.355 399.68 226.715C398.242 224.406 396.481 222.315 394.45 220.505C392.45 218.675 390.2 217.085 388.06 215.395C385.893 213.751 383.926 211.858 382.2 209.755C380.426 207.416 378.882 204.911 377.59 202.275C377.25 201.615 376.9 200.965 376.59 200.275C376.53 200.255 376.62 200.195 376.65 200.255Z" fill="#A6A6A6"/>
<path d="M456.96 228.165C456.96 228.165 457.19 248.755 444.88 254.695C432.57 260.635 425.98 255.695 417.61 257.695C417.93 257.205 423.9 248.615 433.4 246.255C443.18 243.805 454 236.745 456.96 228.165Z" fill="#DBDBDB"/>
<path opacity="0.1" d="M456.96 228.165C456.96 228.165 457.19 248.755 444.88 254.695C432.57 260.635 425.98 255.695 417.61 257.695C422.028 255.586 426.754 254.191 431.61 253.565C439.38 252.605 454.21 247.555 456.96 228.165Z" fill="#A6A6A6"/>
<path d="M416.8 258.045C418.265 256.712 419.916 255.597 421.7 254.735C421.96 254.605 422.23 254.505 422.5 254.385C422.77 254.265 422.77 254.065 422.91 253.915C423.28 253.535 423.67 253.165 424.07 252.815C424.842 252.149 425.672 251.554 426.55 251.035C428.55 249.835 430.82 249.035 432.91 247.875C432.97 247.875 433.02 247.945 432.96 247.975C431.96 248.505 430.96 249.095 429.96 249.685C428.96 250.275 427.96 250.795 427.04 251.405C426.181 251.952 425.365 252.563 424.6 253.235C424.38 253.425 424.18 253.625 423.97 253.835C425.331 253.378 426.721 253.011 428.13 252.735C430.38 252.275 432.66 251.955 434.91 251.475C436.015 251.241 437.107 250.948 438.18 250.595C439.18 249.775 440.18 248.955 441.18 248.065C442.351 246.99 443.419 245.809 444.37 244.535C444.374 244.529 444.379 244.524 444.385 244.52C444.39 244.516 444.397 244.513 444.404 244.512C444.411 244.51 444.418 244.51 444.425 244.512C444.432 244.513 444.439 244.516 444.445 244.52C444.451 244.524 444.456 244.529 444.46 244.535C444.464 244.541 444.466 244.547 444.468 244.554C444.469 244.561 444.469 244.568 444.468 244.575C444.466 244.582 444.464 244.589 444.46 244.595C442.983 246.61 441.308 248.473 439.46 250.155C439.99 249.955 440.52 249.745 441.03 249.505C445.257 247.61 448.885 244.595 451.52 240.785C451.52 240.725 451.65 240.785 451.61 240.835C449.374 244.107 446.487 246.881 443.13 248.985C441.446 250.033 439.647 250.885 437.77 251.525C435.584 252.199 433.356 252.723 431.1 253.095C428.892 253.456 426.713 253.974 424.58 254.645C422.617 255.314 420.772 256.286 419.11 257.525C415.972 259.96 413.446 263.093 411.73 266.675C409.533 271.408 408.16 276.48 407.67 281.675C407.67 281.895 407.3 281.895 407.32 281.675C407.82 273.065 410.13 264.055 416.8 258.045Z" fill="#A6A6A6"/>
<path d="M431.09 251.385C431.731 250.424 432.601 249.638 433.62 249.095C434.781 248.48 435.802 247.632 436.62 246.605C436.62 246.545 436.75 246.605 436.71 246.655C435.97 247.598 435.069 248.403 434.05 249.035C432.933 249.633 431.946 250.449 431.15 251.435C431.13 251.435 431.06 251.385 431.09 251.385Z" fill="#A6A6A6"/>
<path d="M424.56 273.245L424 284.565L422.28 319.145H396.46L394.74 284.565L394.18 273.245H424.56Z" fill="#EBEBEB"/>
<path d="M424.56 273.245L424 284.565H394.74L394.18 273.245H424.56Z" fill="#DBDBDB"/>
<path d="M426.37 268.515H392.37V279.315H426.37V268.515Z" fill="#EBEBEB"/>
<path d="M237.53 392.535C368.714 392.535 475.06 380.769 475.06 366.255C475.06 351.741 368.714 339.975 237.53 339.975C106.346 339.975 0 351.741 0 366.255C0 380.769 106.346 392.535 237.53 392.535Z" fill="#EBEBEB"/>
<path d="M18.2896 319.145L73.0995 318.905L127.91 318.815L237.53 318.655L347.15 318.815L401.96 318.905L456.77 319.145L401.96 319.395L347.15 319.485L237.53 319.645L127.91 319.485L73.0995 319.395L18.2896 319.145Z" fill="#263238"/>
<path d="M402.94 111.895H70.4399V334.315H402.94V111.895Z" fill="#DBDBDB"/>
<path d="M400.52 114.605H72.8599V331.595H400.52V114.605Z" fill="#37474F"/>
<path d="M446.24 350.985H27.1299V366.245H446.24V350.985Z" fill="#C7C7C7"/>
<path d="M27.1299 350.985L70.4399 334.315H402.94L446.24 350.985H27.1299Z" fill="#DBDBDB"/>
<path d="M74.3101 345.075L102.25 334.315H371.13L399.07 345.075H74.3101Z" fill="#37474F"/>
<path d="M382 131.095H91.3701V315.115H382V131.095Z" fill="white"/>
<path d="M382.01 131.095H91.1299V138.175H382.01V131.095Z" fill="#A6A6A6"/>
<path d="M96.7597 134.635C96.7597 134.983 96.6565 135.323 96.4631 135.613C96.2697 135.902 95.9949 136.128 95.6733 136.261C95.3517 136.394 94.9978 136.429 94.6564 136.361C94.315 136.293 94.0014 136.126 93.7552 135.879C93.5091 135.633 93.3415 135.32 93.2736 134.978C93.2057 134.637 93.2405 134.283 93.3737 133.961C93.5069 133.64 93.7325 133.365 94.0219 133.172C94.3114 132.978 94.6517 132.875 94.9997 132.875C95.2312 132.874 95.4607 132.918 95.6748 133.006C95.889 133.094 96.0835 133.224 96.2472 133.387C96.4109 133.551 96.5405 133.746 96.6285 133.96C96.7165 134.174 96.7611 134.403 96.7597 134.635Z" fill="#C7C7C7"/>
<path d="M102.17 136.395C103.142 136.395 103.93 135.607 103.93 134.635C103.93 133.663 103.142 132.875 102.17 132.875C101.198 132.875 100.41 133.663 100.41 134.635C100.41 135.607 101.198 136.395 102.17 136.395Z" fill="white"/>
<path d="M111.1 134.635C111.1 134.983 110.997 135.323 110.803 135.613C110.61 135.902 110.335 136.128 110.014 136.261C109.692 136.394 109.338 136.429 108.997 136.361C108.655 136.293 108.342 136.126 108.096 135.879C107.849 135.633 107.682 135.32 107.614 134.978C107.546 134.637 107.581 134.283 107.714 133.961C107.847 133.64 108.073 133.365 108.362 133.172C108.652 132.978 108.992 132.875 109.34 132.875C109.572 132.874 109.801 132.918 110.015 133.006C110.229 133.094 110.424 133.224 110.588 133.387C110.751 133.551 110.881 133.746 110.969 133.96C111.057 134.174 111.101 134.403 111.1 134.635Z" fill="#FFC727"/>
<path d="M156.14 115.745C145.55 129.745 144.88 150.475 144.88 150.475C144.88 150.475 135.94 172.475 140.81 183.045C142.128 186.055 144.155 188.701 146.718 190.756C149.282 192.811 152.306 194.214 155.53 194.845L153.53 188.905C153.53 188.905 158.61 196.185 172.31 197.475C186.01 198.765 202.95 192.185 211.41 186.275C216.435 182.806 220.473 178.092 223.13 172.595L220.97 181.955C220.97 181.955 233.77 179.675 239.46 164.955C245.15 150.235 220.46 133.645 217.96 129.675C215.46 125.705 208.75 95.1749 177.04 105.115C177.02 105.075 163.43 106.095 156.14 115.745Z" fill="#263238"/>
<path d="M150.74 194.715C146.82 193.505 143.25 190.205 140.88 186.945C138.331 183.521 137.003 179.342 137.11 175.075C137.3 169.955 139.31 165.175 141.26 160.515C143.26 155.695 145.65 151.005 147.58 146.165C147.68 145.895 147.28 145.745 147.13 145.965C144.723 149.76 142.536 153.689 140.58 157.735C138.52 161.471 136.902 165.434 135.76 169.545C134.694 173.334 134.735 177.349 135.88 181.115C136.954 184.173 138.764 186.92 141.15 189.115C143.96 191.755 147.28 193.235 150.61 195.055C150.632 195.063 150.656 195.067 150.68 195.067C150.704 195.066 150.727 195.061 150.749 195.051C150.771 195.041 150.791 195.027 150.807 195.01C150.823 194.993 150.836 194.972 150.845 194.95C150.853 194.927 150.857 194.904 150.857 194.88C150.856 194.856 150.851 194.832 150.841 194.811C150.831 194.789 150.817 194.769 150.8 194.753C150.783 194.736 150.762 194.723 150.74 194.715Z" fill="#263238"/>
<path d="M240.18 150.455C234.67 139.645 223.43 133.885 215.81 124.865C211.68 119.975 208.23 114.405 203.19 110.365C203.05 110.265 202.87 110.495 203 110.605C207.19 114.295 210 119.035 213.27 123.475C216.712 127.852 220.585 131.872 224.83 135.475C232.36 142.275 241.36 150.305 241.42 161.315C241.42 166.405 239.28 172.315 234.42 174.625C234.24 174.705 234.42 175.015 234.58 174.905C236.483 173.811 238.142 172.34 239.458 170.583C240.773 168.826 241.716 166.819 242.23 164.685C243.282 159.849 242.554 154.797 240.18 150.455Z" fill="#263238"/>
<path d="M241.09 153.445C240.822 149.092 239.215 144.929 236.49 141.525C233.73 138.175 229.83 136.035 225.98 134.185C221.53 132.055 216.89 130.105 213.7 126.185C213.57 126.015 213.34 126.245 213.47 126.405C218.56 132.885 226.81 135.075 232.92 140.265C239.92 146.205 241.32 156.095 238.28 164.455C236.316 169.561 233.174 174.132 229.11 177.795C229.04 177.855 229.11 177.965 229.21 177.895C236.17 171.775 241.83 163.085 241.09 153.445Z" fill="#263238"/>
<path d="M185.53 202.445C196.06 213.505 250.17 265.825 273.79 260.945C302.42 255.035 335.67 237.615 348.65 225.235C355.93 218.305 320.84 183.235 313.52 188.645C301.99 197.185 274.21 211.385 269.32 213.385C264.43 215.385 223.06 194.055 198.94 185.715C177.22 178.155 178.12 194.655 185.53 202.445Z" fill="#DD6A57"/>
<path d="M368.44 209.505C362.09 217.975 342.32 230.205 336.44 231.325C330.56 232.445 308.62 199.525 310.59 193.675C312.56 187.825 336.16 160.985 346.59 158.295C357.02 155.605 375.03 200.735 368.44 209.505Z" fill="#DD6A57"/>
<path d="M313.78 188.385C313.78 188.385 317.53 175.135 316.78 163.035C316.12 152.855 313.99 137.815 319.45 137.255C330.66 136.105 335.96 173.615 335.96 173.615C335.96 173.615 335.63 190.545 324.63 192.615C317.7 194.005 313.78 188.385 313.78 188.385Z" fill="#DD6A57"/>
<path d="M331.34 165.665C330.78 171.245 337.68 168.715 337.68 168.715C337.68 168.715 328.68 174.715 330.28 180.715C331.88 186.465 340.1 183.105 340.7 182.875C340.22 183.205 332.05 188.975 334.33 194.805C336.7 200.865 344.33 196.085 344.87 195.805C344.51 196.245 339.94 202.235 342.68 206.275C347.38 213.215 359.5 198.275 366.27 197.795C366.27 197.795 368.32 209.195 368.44 209.515C368.44 209.515 380.26 195.515 379.17 186.385C379.03 185.057 378.442 183.818 377.502 182.87C376.562 181.923 375.326 181.325 374 181.175C374 181.175 378.31 177.075 376.67 172.425C375.82 170.035 371.24 169.275 371.24 169.275C371.24 169.275 374.56 165.855 372.84 161.805C371.47 158.575 367.1 158.315 367.1 158.315C367.1 158.315 368.75 153.545 366.29 150.695C361.32 144.925 332.53 153.715 331.34 165.665Z" fill="#DD6A57"/>
<path d="M366.41 158.155C366.431 158.155 366.451 158.146 366.466 158.131C366.481 158.116 366.49 158.096 366.49 158.075C366.49 158.054 366.481 158.033 366.466 158.018C366.451 158.003 366.431 157.995 366.41 157.995C356.24 158.575 345.24 162.335 337.3 168.805C337.04 169.025 337.3 169.535 337.6 169.355C347.05 164.245 355.86 160.475 366.41 158.155Z" fill="#263238"/>
<path d="M371.37 169.165C371.48 169.165 371.44 168.955 371.37 168.955C360.89 169.615 348.63 174.185 340.37 182.725C340.09 183.015 340.13 183.565 340.48 183.255C346.34 177.995 361.86 171.205 371.37 169.165Z" fill="#263238"/>
<path d="M344.53 196.585C352.78 188.705 362.73 184.255 373.6 181.165C373.74 181.165 373.67 180.925 373.54 180.925C367.81 180.995 361.08 183.685 356.03 186.225C351.295 188.501 347.235 191.972 344.25 196.295C344.1 196.465 344.32 196.755 344.53 196.585Z" fill="#263238"/>
<path d="M337.53 168.665C337.22 168.915 337.94 169.095 337.63 169.355C336.35 170.475 329.23 177.845 330.98 181.045C332.4 183.615 336.83 183.495 338.51 182.785L342.75 180.995L339.39 184.145C337.892 185.536 336.629 187.16 335.65 188.955C335.147 189.761 334.821 190.664 334.694 191.605C334.566 192.547 334.64 193.504 334.91 194.415C335.171 195.252 335.709 195.976 336.436 196.467C337.163 196.958 338.036 197.186 338.91 197.115C340.872 196.903 342.748 196.194 344.36 195.055L348.91 192.055L345.58 196.385C344.657 197.579 343.89 198.886 343.3 200.275C342.687 201.57 342.472 203.017 342.68 204.435C342.798 205.068 343.091 205.656 343.526 206.131C343.96 206.607 344.52 206.951 345.14 207.125C346.588 207.306 348.058 207.074 349.38 206.455C352.247 205.144 355.009 203.613 357.64 201.875C359 201.045 360.37 200.215 361.78 199.445C363.145 198.591 364.675 198.036 366.27 197.815C364.731 198.2 363.281 198.879 362 199.815C360.67 200.675 359.38 201.605 358.09 202.545C355.52 204.498 352.775 206.208 349.89 207.655C348.341 208.476 346.585 208.824 344.84 208.655C343.903 208.455 343.044 207.986 342.37 207.306C341.695 206.626 341.233 205.763 341.04 204.825C340.737 203.073 340.96 201.27 341.68 199.645C342.313 198.086 343.146 196.617 344.16 195.275L345.4 196.585C343.514 197.962 341.301 198.823 338.98 199.085C337.688 199.18 336.402 198.827 335.34 198.085C334.323 197.328 333.556 196.283 333.14 195.085C332.798 193.933 332.704 192.721 332.864 191.53C333.024 190.339 333.435 189.195 334.07 188.175C335.169 186.213 336.589 184.449 338.27 182.955L339.15 184.315C336.98 185.155 332.04 185.825 329.35 182.115C326.53 176.725 335.73 169.805 337.53 168.665Z" fill="#263238"/>
<path d="M337.68 168.715C336.536 168.89 335.373 168.89 334.23 168.715C333.771 168.658 333.335 168.48 332.967 168.199C332.6 167.918 332.314 167.543 332.14 167.115C331.894 166.123 331.939 165.082 332.27 164.115C332.58 163.025 332.97 161.905 333.41 160.755C332.452 161.559 331.672 162.553 331.12 163.675C330.449 164.897 330.287 166.334 330.67 167.675C330.951 168.383 331.443 168.987 332.08 169.405C332.684 169.767 333.375 169.957 334.08 169.955C335.382 169.938 336.644 169.504 337.68 168.715Z" fill="#263238"/>
<path d="M305.13 192.295L345.78 238.235C345.78 238.235 285.44 267.775 265.78 263.235C246.12 258.695 205.53 228.095 187.78 206.235C170.03 184.375 180.78 178.295 205.51 186.475C230.24 194.655 265.2 210.625 268.75 210.475C272.3 210.325 305.13 192.295 305.13 192.295Z" fill="#FFC727"/>
<path d="M345.78 238.235C345.78 238.235 285.44 267.765 265.78 263.235C253.54 260.425 233.2 247.495 215.3 232.845C215.224 232.8 215.154 232.746 215.09 232.685C204.31 223.845 194.43 214.405 187.77 206.195C182 199.105 179.25 193.675 178.99 189.855C178.926 189.141 178.976 188.422 179.14 187.725C180.52 181.725 190.41 181.465 205.5 186.455C230.26 194.625 265.19 210.595 268.75 210.455C272.31 210.315 305.12 192.295 305.12 192.295L345.78 238.235Z" fill="#FFC727"/>
<path d="M235.85 233.685C236.609 233.423 237.427 233.379 238.21 233.555C238.638 233.715 239.007 234 239.271 234.372C239.535 234.745 239.681 235.188 239.69 235.645C239.683 235.948 239.753 236.248 239.895 236.516C240.037 236.784 240.245 237.011 240.5 237.175C240.78 237.36 241.105 237.467 241.44 237.485C241.82 237.555 242.19 237.595 242.57 237.695C241.804 237.966 240.974 237.997 240.19 237.785C239.775 237.608 239.422 237.312 239.175 236.935C238.928 236.558 238.797 236.116 238.8 235.665C238.791 235.364 238.707 235.069 238.555 234.809C238.403 234.548 238.188 234.33 237.93 234.175C237.627 233.995 237.282 233.899 236.93 233.895C236.6 233.825 236.22 233.785 235.85 233.685Z" fill="white"/>
<path d="M182.7 191.385C181.937 191.65 181.112 191.685 180.33 191.485C179.995 191.349 179.699 191.133 179.467 190.855C179.235 190.578 179.075 190.248 179 189.895C178.935 189.181 178.986 188.462 179.15 187.765C179.566 188.183 179.806 188.745 179.82 189.335C179.815 189.639 179.888 189.938 180.032 190.206C180.175 190.474 180.385 190.7 180.64 190.865C180.918 191.046 181.238 191.153 181.57 191.175C181.95 191.245 182.32 191.285 182.7 191.385Z" fill="white"/>
<path d="M293.01 217.855C293.775 217.602 294.593 217.561 295.38 217.735C295.808 217.893 296.178 218.178 296.44 218.551C296.703 218.924 296.846 219.369 296.85 219.825C296.847 220.128 296.921 220.427 297.064 220.695C297.208 220.962 297.416 221.189 297.67 221.355C297.951 221.537 298.275 221.641 298.61 221.655C298.98 221.735 299.36 221.775 299.73 221.875C298.967 222.144 298.141 222.175 297.36 221.965C296.942 221.787 296.587 221.491 296.338 221.112C296.089 220.733 295.957 220.288 295.96 219.835C295.955 219.535 295.874 219.242 295.723 218.983C295.572 218.723 295.358 218.507 295.1 218.355C294.799 218.171 294.453 218.074 294.1 218.075C293.76 217.995 293.39 217.955 293.01 217.855Z" fill="white"/>
<path d="M332.53 234.555C333.291 234.302 334.107 234.26 334.89 234.435C335.317 234.592 335.687 234.875 335.952 235.246C336.216 235.617 336.361 236.059 336.37 236.515C336.363 236.819 336.433 237.12 336.575 237.39C336.717 237.659 336.925 237.888 337.18 238.055C337.461 238.237 337.785 238.341 338.12 238.355C338.5 238.425 338.87 238.475 339.25 238.575C338.482 238.837 337.655 238.868 336.87 238.665C336.454 238.487 336.099 238.19 335.852 237.811C335.604 237.431 335.475 236.988 335.48 236.535C335.471 236.233 335.387 235.939 335.235 235.679C335.083 235.418 334.868 235.2 334.61 235.045C334.306 234.869 333.961 234.775 333.61 234.775C333.32 234.695 332.94 234.655 332.53 234.555Z" fill="white"/>
<path d="M255.66 245.385C256.424 245.132 257.243 245.091 258.03 245.265C258.466 245.424 258.843 245.712 259.111 246.09C259.379 246.469 259.525 246.921 259.53 247.385C259.523 247.688 259.594 247.987 259.736 248.255C259.878 248.523 260.086 248.75 260.34 248.915C260.62 249.097 260.945 249.201 261.28 249.215C261.66 249.295 262.03 249.335 262.41 249.435C261.643 249.702 260.814 249.733 260.03 249.525C259.613 249.347 259.259 249.05 259.012 248.671C258.764 248.291 258.635 247.848 258.64 247.395C258.631 247.095 258.547 246.802 258.395 246.543C258.243 246.284 258.028 246.068 257.77 245.915C257.469 245.73 257.123 245.634 256.77 245.635C256.41 245.555 256.03 245.505 255.66 245.385Z" fill="white"/>
<path d="M212.3 190.445C213.065 190.192 213.883 190.151 214.67 190.325C215.096 190.485 215.465 190.771 215.727 191.143C215.989 191.516 216.133 191.959 216.14 192.415C216.137 192.718 216.211 193.017 216.354 193.285C216.498 193.552 216.706 193.779 216.96 193.945C217.24 194.13 217.564 194.237 217.9 194.255C218.27 194.325 218.65 194.365 219.03 194.465C218.264 194.736 217.434 194.767 216.65 194.555C216.235 194.378 215.882 194.082 215.635 193.705C215.387 193.328 215.257 192.886 215.26 192.435C215.253 192.133 215.17 191.838 215.017 191.577C214.865 191.317 214.649 191.099 214.39 190.945C214.087 190.765 213.742 190.669 213.39 190.665C213.06 190.595 212.68 190.545 212.3 190.445Z" fill="white"/>
<path d="M305.99 243.225C305.637 243.947 305.09 244.556 304.41 244.985C303.995 245.175 303.533 245.235 303.084 245.158C302.634 245.082 302.218 244.871 301.89 244.555C301.678 244.338 301.415 244.177 301.125 244.088C300.835 243.999 300.527 243.984 300.23 244.045C299.902 244.115 299.598 244.27 299.35 244.495C299.03 244.705 298.74 244.945 298.4 245.135C298.83 244.525 299.15 243.775 300.02 243.395C300.44 243.226 300.901 243.185 301.344 243.277C301.787 243.37 302.193 243.592 302.51 243.915C302.727 244.123 302.993 244.273 303.283 244.35C303.573 244.427 303.879 244.428 304.17 244.355C304.496 244.271 304.795 244.105 305.04 243.875C305.36 243.655 305.66 243.385 305.99 243.225Z" fill="white"/>
<path d="M258.47 224.385C258.116 225.109 257.565 225.719 256.88 226.145C256.467 226.334 256.006 226.394 255.559 226.317C255.111 226.24 254.697 226.031 254.37 225.715C254.158 225.498 253.895 225.337 253.605 225.248C253.315 225.159 253.007 225.144 252.71 225.205C252.382 225.275 252.078 225.43 251.83 225.655C251.51 225.865 251.21 226.105 250.88 226.295C251.31 225.685 251.63 224.935 252.49 224.555C252.91 224.386 253.371 224.345 253.814 224.437C254.257 224.53 254.663 224.752 254.98 225.075C255.199 225.282 255.467 225.431 255.759 225.508C256.05 225.585 256.357 225.587 256.65 225.515C256.976 225.431 257.275 225.266 257.52 225.035C257.84 224.855 258.13 224.625 258.47 224.385Z" fill="white"/>
<path d="M281.58 234.705C281.224 235.425 280.677 236.033 280 236.465C279.585 236.655 279.122 236.714 278.672 236.636C278.222 236.557 277.806 236.344 277.48 236.025C277.269 235.807 277.005 235.647 276.715 235.559C276.424 235.472 276.116 235.46 275.82 235.525C275.491 235.59 275.186 235.746 274.94 235.975C274.62 236.185 274.33 236.425 273.94 236.615C274.37 236.005 274.69 235.255 275.56 234.875C275.979 234.707 276.439 234.666 276.881 234.757C277.324 234.847 277.73 235.066 278.05 235.385C278.265 235.595 278.531 235.747 278.822 235.824C279.113 235.901 279.419 235.901 279.71 235.825C280.039 235.742 280.342 235.577 280.59 235.345C280.95 235.135 281.25 234.895 281.58 234.705Z" fill="white"/>
<path d="M311.47 200.735C311.11 201.455 310.56 202.064 309.88 202.495C309.465 202.685 309.003 202.745 308.554 202.668C308.104 202.592 307.688 202.381 307.36 202.065C307.149 201.847 306.886 201.686 306.595 201.596C306.305 201.507 305.997 201.493 305.7 201.555C305.373 201.629 305.071 201.784 304.82 202.005C304.51 202.215 304.21 202.455 303.82 202.645C304.26 202.035 304.57 201.285 305.44 200.905C305.86 200.736 306.32 200.695 306.764 200.787C307.207 200.88 307.613 201.102 307.93 201.425C308.147 201.632 308.413 201.781 308.703 201.858C308.993 201.935 309.298 201.937 309.59 201.865C309.938 201.786 310.262 201.621 310.53 201.385C310.84 201.165 311.13 200.935 311.47 200.735Z" fill="white"/>
<path d="M197.42 198.385C197.673 199.15 197.714 199.968 197.54 200.755C197.379 201.181 197.094 201.55 196.721 201.812C196.349 202.074 195.906 202.218 195.45 202.225C195.147 202.222 194.848 202.296 194.58 202.439C194.313 202.583 194.086 202.791 193.92 203.045C193.735 203.325 193.628 203.649 193.61 203.985C193.54 204.355 193.5 204.735 193.4 205.115C193.129 204.349 193.098 203.519 193.31 202.735C193.487 202.32 193.783 201.967 194.16 201.72C194.537 201.472 194.979 201.342 195.43 201.345C195.731 201.336 196.026 201.252 196.286 201.1C196.546 200.948 196.764 200.733 196.92 200.475C197.1 200.172 197.196 199.827 197.2 199.475C197.27 199.115 197.31 198.735 197.42 198.385Z" fill="white"/>
<path d="M318.05 227.105C318.303 227.87 318.344 228.688 318.17 229.475C318.01 229.902 317.726 230.271 317.353 230.534C316.979 230.796 316.536 230.939 316.08 230.945C315.776 230.939 315.475 231.011 315.207 231.154C314.939 231.298 314.713 231.508 314.55 231.765C314.366 232.041 314.262 232.363 314.25 232.695C314.17 233.075 314.13 233.445 314.03 233.825C313.761 233.062 313.73 232.236 313.94 231.455C314.117 231.038 314.414 230.682 314.793 230.433C315.172 230.184 315.616 230.052 316.07 230.055C316.37 230.048 316.664 229.965 316.923 229.813C317.182 229.66 317.398 229.444 317.55 229.185C317.727 228.899 317.824 228.571 317.83 228.235C317.9 227.855 317.95 227.475 318.05 227.105Z" fill="white"/>
<path d="M284.18 251.975C284.433 252.74 284.474 253.558 284.3 254.345C284.142 254.773 283.857 255.143 283.484 255.405C283.111 255.668 282.666 255.811 282.21 255.815C281.907 255.812 281.608 255.886 281.34 256.029C281.073 256.173 280.846 256.381 280.68 256.635C280.498 256.916 280.394 257.24 280.38 257.575C280.3 257.945 280.26 258.325 280.16 258.705C279.893 257.938 279.861 257.109 280.07 256.325C280.248 255.909 280.545 255.554 280.924 255.307C281.303 255.06 281.747 254.93 282.2 254.935C282.5 254.926 282.793 254.842 283.052 254.69C283.311 254.538 283.527 254.323 283.68 254.065C283.864 253.764 283.961 253.418 283.96 253.065C284.04 252.735 284.08 252.385 284.18 251.975Z" fill="white"/>
<path d="M278.26 209.955C278.513 210.72 278.554 211.538 278.38 212.325C278.222 212.753 277.937 213.123 277.564 213.385C277.19 213.648 276.746 213.791 276.29 213.795C275.986 213.792 275.687 213.866 275.42 214.009C275.153 214.153 274.926 214.361 274.76 214.615C274.577 214.896 274.474 215.22 274.46 215.555C274.38 215.925 274.34 216.305 274.24 216.675C273.971 215.912 273.94 215.086 274.15 214.305C274.327 213.887 274.624 213.532 275.003 213.283C275.382 213.034 275.826 212.902 276.28 212.905C276.579 212.9 276.873 212.819 277.132 212.668C277.391 212.518 277.607 212.303 277.76 212.045C277.944 211.744 278.041 211.398 278.04 211.045C278.12 210.705 278.16 210.385 278.26 209.955Z" fill="white"/>
<path d="M239.16 206.595C239.417 207.359 239.458 208.179 239.28 208.965C239.122 209.391 238.839 209.76 238.468 210.023C238.096 210.285 237.654 210.429 237.2 210.435C236.895 210.433 236.595 210.506 236.326 210.65C236.057 210.793 235.828 211.001 235.66 211.255C235.477 211.536 235.374 211.86 235.36 212.195C235.29 212.565 235.24 212.945 235.14 213.315C234.877 212.551 234.846 211.727 235.05 210.945C235.228 210.528 235.525 210.173 235.904 209.924C236.283 209.676 236.726 209.544 237.18 209.545C237.481 209.541 237.776 209.46 238.037 209.309C238.298 209.159 238.516 208.944 238.67 208.685C238.846 208.381 238.939 208.036 238.94 207.685C239.02 207.385 239.06 206.975 239.16 206.595Z" fill="white"/>
<path d="M215.31 232.885C215.234 232.84 215.164 232.786 215.1 232.725C215.1 232.595 215.15 232.465 215.19 232.325C215.22 232.525 215.27 232.705 215.31 232.885Z" fill="white"/>
<path d="M211.43 215.285C211.792 214.566 212.342 213.958 213.02 213.525C213.436 213.338 213.898 213.28 214.347 213.358C214.796 213.437 215.212 213.648 215.54 213.965C215.873 214.3 216.323 214.492 216.795 214.502C217.267 214.511 217.724 214.336 218.07 214.015C218.39 213.805 218.69 213.575 219.07 213.375C218.63 213.985 218.32 214.735 217.45 215.115C217.03 215.283 216.571 215.324 216.128 215.233C215.686 215.142 215.279 214.924 214.96 214.605C214.743 214.394 214.475 214.243 214.182 214.166C213.89 214.089 213.582 214.089 213.29 214.165C212.962 214.245 212.662 214.411 212.42 214.645C212.06 214.855 211.77 215.095 211.43 215.285Z" fill="white"/>
<path d="M333.53 243.635C331.44 240.585 328.72 237.875 326.34 235.045C323.96 232.215 321.34 229.315 318.75 226.485C313.75 220.985 308.61 215.645 303.44 210.325C300.44 207.225 297.31 204.255 294.26 201.185C294.15 201.075 293.96 201.255 294.06 201.375C298.99 207.105 303.84 212.865 308.89 218.485C313.94 224.105 318.89 229.485 324.08 234.765C325.56 236.285 327.08 237.765 328.6 239.245C330.086 240.862 331.662 242.395 333.32 243.835C333.43 243.935 333.61 243.765 333.53 243.635Z" fill="#263238"/>
<path opacity="0.1" d="M287.44 261.025C278.66 263.325 270.87 264.435 265.79 263.275C253.55 260.465 233.21 247.535 215.31 232.885C215.234 232.84 215.164 232.786 215.1 232.725C204.32 223.885 194.44 214.445 187.78 206.235C182.01 199.145 179.26 193.715 179 189.895C178.935 189.181 178.986 188.462 179.15 187.765C179.79 185.005 182.25 183.455 186.15 183.085L287.44 261.025Z" fill="black"/>
<path d="M225.75 261.455L235.22 315.115H121.78C125.01 262.655 155.45 205.275 168.87 188.925C175.59 180.735 188.87 178.985 198.94 185.665C201.33 187.245 229.16 228.305 231.44 234.295C235.98 246.105 225.75 261.455 225.75 261.455Z" fill="#FFC727"/>
<path d="M188.13 221.385C188.895 221.132 189.713 221.091 190.5 221.265C190.926 221.427 191.293 221.712 191.555 222.085C191.817 222.457 191.962 222.9 191.97 223.355C191.964 223.828 192.145 224.285 192.472 224.627C192.799 224.969 193.247 225.169 193.72 225.185C194.1 225.265 194.47 225.305 194.85 225.405C194.084 225.676 193.254 225.707 192.47 225.495C192.055 225.318 191.702 225.022 191.455 224.645C191.207 224.268 191.077 223.826 191.08 223.375C191.073 223.073 190.99 222.778 190.837 222.517C190.685 222.257 190.469 222.039 190.21 221.885C189.907 221.705 189.562 221.609 189.21 221.605C188.88 221.505 188.53 221.455 188.13 221.385Z" fill="white"/>
<path d="M195.53 268.385C196.295 268.132 197.113 268.091 197.9 268.265C198.326 268.425 198.695 268.711 198.957 269.083C199.219 269.456 199.363 269.899 199.37 270.355C199.367 270.658 199.441 270.957 199.584 271.225C199.728 271.492 199.936 271.719 200.19 271.885C200.471 272.067 200.795 272.171 201.13 272.185C201.5 272.265 201.88 272.305 202.25 272.405C201.487 272.674 200.661 272.705 199.88 272.495C199.462 272.319 199.106 272.022 198.858 271.643C198.611 271.263 198.482 270.818 198.49 270.365C198.481 270.065 198.397 269.772 198.245 269.513C198.093 269.254 197.878 269.038 197.62 268.885C197.319 268.7 196.973 268.604 196.62 268.605C196.25 268.575 195.88 268.525 195.53 268.385Z" fill="white"/>
<path d="M167.7 237.045C168.463 236.784 169.283 236.739 170.07 236.915C170.495 237.077 170.863 237.362 171.125 237.735C171.387 238.107 171.531 238.55 171.54 239.005C171.534 239.309 171.607 239.609 171.751 239.877C171.894 240.144 172.104 240.371 172.36 240.535C172.635 240.722 172.957 240.829 173.29 240.845C173.67 240.915 174.04 240.955 174.42 241.055C173.657 241.324 172.831 241.355 172.05 241.145C171.633 240.969 171.278 240.674 171.029 240.297C170.78 239.92 170.648 239.477 170.65 239.025C170.644 238.723 170.561 238.427 170.409 238.167C170.256 237.906 170.04 237.688 169.78 237.535C169.492 237.363 169.165 237.267 168.83 237.255C168.45 237.185 168.08 237.145 167.7 237.045Z" fill="white"/>
<path d="M152.63 285.245C153.391 284.992 154.207 284.95 154.99 285.125C155.419 285.282 155.789 285.566 156.052 285.94C156.315 286.313 156.457 286.758 156.46 287.215C156.457 287.518 156.531 287.817 156.674 288.085C156.818 288.352 157.026 288.579 157.28 288.745C157.561 288.927 157.885 289.031 158.22 289.045C158.59 289.125 158.97 289.165 159.35 289.265C158.583 289.532 157.754 289.563 156.97 289.355C156.554 289.177 156.199 288.88 155.952 288.501C155.705 288.121 155.575 287.678 155.58 287.225C155.571 286.925 155.487 286.632 155.335 286.373C155.183 286.114 154.968 285.898 154.71 285.745C154.409 285.56 154.063 285.463 153.71 285.465C153.38 285.385 153 285.385 152.63 285.245Z" fill="white"/>
<path d="M220.46 308.655C221.225 308.402 222.044 308.361 222.83 308.535C223.256 308.695 223.625 308.981 223.887 309.353C224.149 309.726 224.293 310.169 224.3 310.625C224.298 310.928 224.371 311.227 224.515 311.495C224.658 311.762 224.866 311.989 225.12 312.155C225.401 312.337 225.725 312.441 226.06 312.455C226.43 312.535 226.81 312.575 227.19 312.675C226.423 312.942 225.594 312.973 224.81 312.765C224.394 312.587 224.039 312.29 223.792 311.911C223.545 311.531 223.415 311.087 223.42 310.635C223.411 310.335 223.327 310.042 223.175 309.783C223.023 309.524 222.808 309.308 222.55 309.155C222.249 308.97 221.903 308.873 221.55 308.875C221.22 308.805 220.84 308.755 220.46 308.655Z" fill="white"/>
<path d="M127.76 291.525C126.993 291.792 126.164 291.823 125.38 291.615C125.214 291.552 125.059 291.464 124.92 291.355C124.97 291.025 125.04 290.705 125.11 290.355C125.248 290.61 125.447 290.826 125.69 290.985C125.971 291.167 126.295 291.271 126.63 291.285C127.01 291.385 127.38 291.385 127.76 291.525Z" fill="white"/>
<path d="M175.98 187.385C176.743 187.124 177.563 187.079 178.35 187.255C178.776 187.417 179.143 187.702 179.405 188.075C179.667 188.447 179.812 188.89 179.82 189.345C179.813 189.648 179.883 189.948 180.025 190.216C180.167 190.484 180.375 190.711 180.63 190.875C180.91 191.06 181.235 191.167 181.57 191.185C181.95 191.255 182.32 191.295 182.7 191.395C181.937 191.664 181.111 191.695 180.33 191.485C179.913 191.31 179.557 191.015 179.307 190.638C179.058 190.26 178.927 189.817 178.93 189.365C178.924 189.063 178.841 188.767 178.689 188.507C178.537 188.246 178.32 188.028 178.06 187.875C177.757 187.695 177.412 187.599 177.06 187.595C176.73 187.515 176.35 187.475 175.98 187.385Z" fill="white"/>
<path d="M216.3 255.385C215.944 256.105 215.397 256.713 214.72 257.145C214.305 257.335 213.842 257.394 213.392 257.316C212.942 257.237 212.526 257.024 212.2 256.705C211.989 256.487 211.725 256.327 211.435 256.239C211.144 256.152 210.836 256.14 210.54 256.205C210.211 256.27 209.906 256.426 209.66 256.655C209.34 256.865 209.05 257.105 208.71 257.295C209.14 256.685 209.46 255.935 210.33 255.555C210.749 255.387 211.209 255.346 211.651 255.437C212.094 255.527 212.5 255.746 212.82 256.065C213.035 256.276 213.301 256.427 213.592 256.504C213.883 256.581 214.189 256.581 214.48 256.505C214.807 256.425 215.108 256.259 215.35 256.025C215.67 255.775 215.97 255.535 216.3 255.385Z" fill="white"/>
<path d="M143.39 240.325C143.027 241.043 142.478 241.651 141.8 242.085C141.517 242.211 141.21 242.276 140.9 242.276C140.59 242.276 140.283 242.211 140 242.085C140.11 241.815 140.21 241.545 140.33 241.275C140.711 241.464 141.145 241.517 141.56 241.425C141.889 241.335 142.191 241.167 142.44 240.935C142.76 240.745 143.06 240.515 143.39 240.325Z" fill="white"/>
<path d="M143.39 272.695C143.033 273.417 142.483 274.027 141.8 274.455C141.387 274.644 140.926 274.704 140.478 274.627C140.031 274.55 139.616 274.34 139.29 274.025C139.078 273.807 138.815 273.647 138.525 273.558C138.235 273.469 137.927 273.454 137.63 273.515C137.302 273.585 136.998 273.74 136.75 273.965C136.43 274.175 136.13 274.415 135.8 274.605C136.23 273.995 136.55 273.245 137.41 272.865C137.83 272.696 138.29 272.655 138.734 272.747C139.177 272.84 139.583 273.062 139.9 273.385C140.119 273.592 140.387 273.741 140.679 273.818C140.97 273.895 141.277 273.897 141.57 273.825C141.897 273.738 142.196 273.569 142.44 273.335C142.76 273.125 143.05 272.895 143.39 272.695Z" fill="white"/>
<path d="M174.84 305.385C174.48 306.105 173.93 306.714 173.25 307.145C172.834 307.335 172.371 307.394 171.921 307.316C171.472 307.237 171.056 307.024 170.73 306.705C170.519 306.487 170.255 306.327 169.965 306.239C169.674 306.152 169.366 306.14 169.07 306.205C168.741 306.273 168.437 306.428 168.19 306.655C167.88 306.865 167.58 307.105 167.24 307.295C167.68 306.685 167.99 305.935 168.86 305.555C169.279 305.387 169.739 305.346 170.181 305.437C170.624 305.527 171.03 305.746 171.35 306.065C171.565 306.275 171.831 306.425 172.122 306.503C172.413 306.58 172.719 306.58 173.01 306.505C173.339 306.422 173.642 306.257 173.89 306.025C174.2 305.835 174.53 305.595 174.84 305.385Z" fill="white"/>
<path d="M177.2 265.715C176.837 266.433 176.288 267.041 175.61 267.475C175.196 267.662 174.735 267.721 174.287 267.642C173.839 267.564 173.425 267.352 173.1 267.035C172.764 266.702 172.314 266.511 171.842 266.5C171.37 266.489 170.911 266.659 170.56 266.975C170.24 267.195 169.94 267.425 169.61 267.625C170.04 267.015 170.35 266.265 171.22 265.885C171.638 265.712 172.099 265.668 172.543 265.759C172.987 265.85 173.393 266.071 173.71 266.395C173.929 266.602 174.197 266.751 174.489 266.828C174.78 266.905 175.087 266.907 175.38 266.835C175.706 266.751 176.005 266.585 176.25 266.355C176.53 266.135 176.86 265.905 177.2 265.715Z" fill="white"/>
<path d="M203.86 298.685C203.494 299.401 202.946 300.008 202.27 300.445C201.855 300.635 201.392 300.694 200.942 300.616C200.492 300.537 200.076 300.324 199.75 300.005C199.539 299.787 199.275 299.627 198.985 299.539C198.694 299.452 198.386 299.44 198.09 299.505C197.761 299.57 197.456 299.726 197.21 299.955C196.89 300.165 196.6 300.395 196.21 300.595C196.64 299.985 196.96 299.235 197.83 298.855C198.249 298.687 198.709 298.646 199.151 298.737C199.594 298.827 200 299.046 200.32 299.365C200.535 299.575 200.801 299.727 201.092 299.804C201.383 299.881 201.689 299.881 201.98 299.805C202.309 299.722 202.612 299.557 202.86 299.325C203.22 299.115 203.53 298.875 203.86 298.685Z" fill="white"/>
<path d="M197.42 198.385C197.673 199.15 197.714 199.968 197.54 200.755C197.379 201.181 197.094 201.55 196.721 201.812C196.349 202.074 195.906 202.218 195.45 202.225C195.147 202.222 194.848 202.296 194.58 202.439C194.313 202.583 194.086 202.791 193.92 203.045C193.735 203.325 193.628 203.649 193.61 203.985C193.54 204.355 193.5 204.735 193.4 205.115C193.129 204.349 193.098 203.519 193.31 202.735C193.487 202.32 193.783 201.967 194.16 201.72C194.537 201.472 194.979 201.342 195.43 201.345C195.731 201.336 196.026 201.252 196.286 201.1C196.546 200.948 196.764 200.733 196.92 200.475C197.1 200.172 197.196 199.827 197.2 199.475C197.27 199.115 197.31 198.735 197.42 198.385Z" fill="white"/>
<path d="M219.53 282.285C219.791 283.048 219.836 283.868 219.66 284.655C219.498 285.081 219.213 285.448 218.84 285.71C218.468 285.972 218.025 286.117 217.57 286.125C217.267 286.121 216.967 286.195 216.7 286.338C216.432 286.482 216.205 286.69 216.04 286.945C215.855 287.225 215.748 287.549 215.73 287.885C215.66 288.255 215.62 288.635 215.52 289.005C215.251 288.242 215.22 287.416 215.43 286.635C215.605 286.218 215.899 285.862 216.277 285.612C216.655 285.363 217.098 285.232 217.55 285.235C217.851 285.231 218.146 285.15 218.407 284.999C218.668 284.849 218.886 284.634 219.04 284.375C219.22 284.072 219.316 283.727 219.32 283.375C219.35 283.035 219.39 282.665 219.53 282.285Z" fill="white"/>
<path d="M215.19 232.325C215.447 233.089 215.489 233.909 215.31 234.695C215.151 235.121 214.868 235.489 214.497 235.751C214.126 236.013 213.684 236.157 213.23 236.165C212.925 236.161 212.624 236.234 212.355 236.377C212.085 236.52 211.857 236.729 211.69 236.985C211.506 237.265 211.402 237.59 211.39 237.925C211.32 238.295 211.27 238.675 211.17 239.045C210.908 238.281 210.876 237.457 211.08 236.675C211.257 236.257 211.554 235.902 211.933 235.653C212.312 235.404 212.756 235.272 213.21 235.275C213.512 235.269 213.807 235.186 214.068 235.034C214.329 234.881 214.546 234.665 214.7 234.405C214.868 234.116 214.961 233.789 214.97 233.455C215.05 233.075 215.09 232.705 215.19 232.325Z" fill="white"/>
<path d="M192.39 245.155C192.646 245.919 192.691 246.738 192.52 247.525C192.358 247.951 192.073 248.318 191.7 248.58C191.328 248.842 190.885 248.987 190.43 248.995C189.956 248.997 189.501 249.181 189.159 249.508C188.817 249.835 188.613 250.282 188.59 250.755C188.52 251.125 188.47 251.505 188.37 251.875C188.104 251.111 188.076 250.285 188.29 249.505C188.464 249.087 188.759 248.732 189.137 248.482C189.514 248.233 189.958 248.102 190.41 248.105C190.711 248.101 191.006 248.02 191.267 247.869C191.528 247.719 191.746 247.504 191.9 247.245C192.073 246.939 192.169 246.596 192.18 246.245C192.25 245.905 192.29 245.535 192.39 245.155Z" fill="white"/>
<path d="M141.6 299.665C141.853 300.43 141.894 301.248 141.72 302.035C141.561 302.462 141.276 302.831 140.903 303.094C140.53 303.356 140.086 303.499 139.63 303.505C139.326 303.501 139.027 303.574 138.759 303.717C138.491 303.86 138.265 304.07 138.1 304.325C137.918 304.602 137.814 304.923 137.8 305.255C137.73 305.635 137.68 306.015 137.58 306.385C137.318 305.621 137.287 304.797 137.49 304.015C137.668 303.598 137.964 303.242 138.343 302.993C138.722 302.744 139.167 302.612 139.62 302.615C139.922 302.609 140.217 302.526 140.478 302.374C140.739 302.221 140.957 302.005 141.11 301.745C141.278 301.456 141.371 301.129 141.38 300.795C141.46 300.385 141.53 300.045 141.6 299.665Z" fill="white"/>
<path d="M157.99 221.065C158.246 221.829 158.291 222.648 158.12 223.435C157.958 223.861 157.673 224.228 157.3 224.49C156.928 224.752 156.485 224.897 156.03 224.905C155.556 224.902 155.1 225.082 154.757 225.409C154.414 225.735 154.211 226.182 154.19 226.655C154.12 227.035 154.07 227.405 153.97 227.785C153.704 227.021 153.676 226.195 153.89 225.415C154.065 224.997 154.359 224.641 154.737 224.392C155.114 224.143 155.558 224.012 156.01 224.015C156.312 224.009 156.607 223.926 156.868 223.774C157.129 223.621 157.346 223.405 157.5 223.145C157.668 222.856 157.761 222.529 157.77 222.195C157.85 221.815 157.89 221.435 157.99 221.065Z" fill="white"/>
<path d="M157.99 253.955C158.246 254.719 158.291 255.538 158.12 256.325C157.958 256.751 157.673 257.118 157.3 257.38C156.928 257.642 156.485 257.787 156.03 257.795C155.556 257.792 155.1 257.972 154.757 258.299C154.414 258.625 154.21 259.072 154.19 259.545C154.12 259.925 154.07 260.295 153.97 260.675C153.706 259.907 153.678 259.078 153.89 258.295C154.065 257.879 154.36 257.524 154.738 257.276C155.115 257.029 155.558 256.899 156.01 256.905C156.311 256.896 156.605 256.812 156.866 256.66C157.126 256.508 157.344 256.293 157.5 256.035C157.676 255.731 157.769 255.386 157.77 255.035C157.85 254.705 157.89 254.325 157.99 253.955Z" fill="white"/>
<path d="M184.43 282.285C184.682 283.05 184.724 283.868 184.55 284.655C184.39 285.082 184.105 285.451 183.732 285.714C183.359 285.976 182.916 286.119 182.46 286.125C182.156 286.122 181.857 286.196 181.59 286.339C181.323 286.483 181.096 286.691 180.93 286.945C180.747 287.226 180.644 287.55 180.63 287.885C180.55 288.255 180.51 288.635 180.41 289.005C180.141 288.242 180.109 287.416 180.32 286.635C180.497 286.217 180.794 285.862 181.173 285.613C181.552 285.364 181.996 285.232 182.45 285.235C182.749 285.23 183.043 285.149 183.302 284.998C183.561 284.848 183.777 284.633 183.93 284.375C184.112 284.073 184.209 283.727 184.21 283.375C184.28 283.035 184.33 282.665 184.43 282.285Z" fill="white"/>
<path d="M211.43 215.285C211.792 214.566 212.342 213.958 213.02 213.525C213.436 213.338 213.898 213.28 214.347 213.358C214.796 213.437 215.212 213.648 215.54 213.965C215.873 214.3 216.323 214.492 216.795 214.502C217.267 214.511 217.724 214.336 218.07 214.015C218.39 213.805 218.69 213.575 219.07 213.375C218.63 213.985 218.32 214.735 217.45 215.115C217.03 215.283 216.571 215.324 216.128 215.233C215.686 215.142 215.279 214.924 214.96 214.605C214.743 214.394 214.475 214.243 214.182 214.166C213.89 214.089 213.582 214.089 213.29 214.165C212.962 214.245 212.662 214.411 212.42 214.645C212.06 214.855 211.77 215.095 211.43 215.285Z" fill="white"/>
<path d="M171.04 211.925C171.4 211.204 171.95 210.596 172.63 210.165C173.044 209.974 173.505 209.915 173.954 209.993C174.402 210.072 174.816 210.285 175.14 210.605C175.351 210.823 175.615 210.983 175.905 211.071C176.196 211.158 176.504 211.17 176.8 211.105C177.129 211.039 177.434 210.884 177.68 210.655C178 210.445 178.3 210.215 178.63 210.015C178.2 210.625 177.88 211.375 177.02 211.755C176.601 211.923 176.141 211.964 175.699 211.873C175.256 211.782 174.85 211.564 174.53 211.245C174.312 211.035 174.045 210.884 173.752 210.807C173.46 210.73 173.153 210.729 172.86 210.805C172.533 210.885 172.232 211.05 171.99 211.285C171.67 211.495 171.38 211.735 171.04 211.925Z" fill="white"/>
<path d="M163.21 194.055C148.13 206.505 93.9499 252.615 97.2099 268.985C100.49 285.565 113.04 298.985 122.69 289.685C130.69 282.055 166.01 225.425 172.42 210.285C178.53 195.865 178.03 181.815 163.21 194.055Z" fill="#DD6A57"/>
<path d="M95.8301 264.385C95.8301 275.865 103.52 297.505 118.45 293.475C128.23 290.845 168.79 223.985 175.33 208.125C182.9 189.755 176.33 182.535 162.33 193.365C148.33 204.195 95.8501 247.995 95.8301 264.385Z" fill="#FFC727"/>
<path d="M137.95 216.315C137.187 216.584 136.361 216.615 135.58 216.405C135.46 216.357 135.347 216.296 135.24 216.225C135.436 216.069 135.623 215.902 135.8 215.725L135.89 215.795C136.168 215.976 136.489 216.079 136.82 216.095C137.2 216.175 137.58 216.225 137.95 216.315Z" fill="white"/>
<path d="M119.82 255.305C120.585 255.052 121.403 255.011 122.19 255.185C122.618 255.343 122.988 255.628 123.25 256.001C123.513 256.374 123.656 256.819 123.66 257.275C123.657 257.578 123.731 257.877 123.874 258.145C124.018 258.412 124.226 258.639 124.48 258.805C124.761 258.987 125.085 259.091 125.42 259.105C125.79 259.185 126.17 259.225 126.54 259.325C125.777 259.594 124.951 259.625 124.17 259.415C123.752 259.237 123.397 258.941 123.148 258.562C122.899 258.183 122.767 257.738 122.77 257.285C122.765 256.985 122.684 256.692 122.533 256.433C122.383 256.173 122.168 255.957 121.91 255.805C121.608 255.622 121.262 255.526 120.91 255.525C120.53 255.445 120.2 255.385 119.82 255.305Z" fill="white"/>
<path d="M124.61 288.475C124.39 288.715 124.17 288.955 123.95 289.175C123.9 288.932 123.801 288.701 123.658 288.498C123.515 288.295 123.332 288.124 123.12 287.995C122.816 287.819 122.471 287.725 122.12 287.725C121.75 287.655 121.37 287.605 120.99 287.505C121.755 287.253 122.573 287.211 123.36 287.385C123.631 287.473 123.881 287.615 124.096 287.803C124.311 287.99 124.485 288.218 124.61 288.475Z" fill="white"/>
<path d="M143.39 240.325C143.03 241.045 142.48 241.654 141.8 242.085C141.386 242.275 140.925 242.335 140.476 242.257C140.028 242.178 139.614 241.965 139.29 241.645C139.079 241.427 138.815 241.267 138.525 241.179C138.234 241.092 137.926 241.08 137.63 241.145C137.3 241.21 136.996 241.366 136.75 241.595C136.43 241.805 136.13 242.035 135.8 242.235C136.23 241.625 136.55 240.875 137.41 240.495C137.829 240.327 138.289 240.286 138.731 240.377C139.174 240.467 139.58 240.686 139.9 241.005C140.117 241.215 140.385 241.365 140.677 241.442C140.97 241.519 141.277 241.52 141.57 241.445C141.897 241.365 142.198 241.199 142.44 240.965C142.76 240.755 143.05 240.515 143.39 240.325Z" fill="white"/>
<path d="M160.25 196.385C160.503 197.146 160.544 197.962 160.37 198.745C160.215 199.173 159.932 199.543 159.56 199.806C159.188 200.069 158.745 200.212 158.29 200.215C157.985 200.212 157.684 200.285 157.415 200.428C157.146 200.572 156.917 200.78 156.75 201.035C156.567 201.316 156.464 201.64 156.45 201.975C156.38 202.355 156.33 202.725 156.23 203.105C155.968 202.337 155.937 201.51 156.14 200.725C156.318 200.309 156.615 199.954 156.994 199.707C157.373 199.46 157.817 199.33 158.27 199.335C158.571 199.326 158.865 199.242 159.126 199.09C159.386 198.938 159.604 198.723 159.76 198.465C159.936 198.161 160.029 197.816 160.03 197.465C160.11 197.135 160.15 196.755 160.25 196.385Z" fill="white"/>
<path d="M157.99 221.065C158.246 221.829 158.291 222.648 158.12 223.435C157.958 223.861 157.673 224.228 157.3 224.49C156.928 224.752 156.485 224.897 156.03 224.905C155.556 224.902 155.1 225.082 154.757 225.409C154.414 225.735 154.211 226.182 154.19 226.655C154.12 227.035 154.07 227.405 153.97 227.785C153.704 227.021 153.676 226.195 153.89 225.415C154.065 224.997 154.359 224.641 154.737 224.392C155.114 224.143 155.558 224.012 156.01 224.015C156.312 224.009 156.607 223.926 156.868 223.774C157.129 223.621 157.346 223.405 157.5 223.145C157.668 222.856 157.761 222.529 157.77 222.195C157.85 221.815 157.89 221.435 157.99 221.065Z" fill="white"/>
<path d="M110.61 273.675C110.863 274.44 110.904 275.258 110.73 276.045C110.572 276.471 110.289 276.84 109.918 277.103C109.547 277.365 109.105 277.509 108.65 277.515C108.345 277.512 108.044 277.585 107.775 277.728C107.506 277.872 107.278 278.08 107.11 278.335C106.928 278.616 106.824 278.94 106.81 279.275C106.74 279.645 106.69 280.025 106.59 280.405C106.328 279.637 106.297 278.81 106.5 278.025C106.678 277.609 106.975 277.254 107.354 277.007C107.733 276.76 108.177 276.63 108.63 276.635C108.931 276.626 109.226 276.542 109.486 276.39C109.746 276.238 109.964 276.023 110.12 275.765C110.296 275.461 110.389 275.116 110.39 274.765C110.47 274.435 110.53 274.055 110.61 273.675Z" fill="white"/>
<path d="M174.45 210.145C174.34 210.395 174.21 210.665 174.08 210.935C173.702 210.747 173.269 210.7 172.86 210.805C172.532 210.885 172.232 211.051 171.99 211.285C171.67 211.495 171.38 211.735 170.99 211.925C171.44 211.305 171.73 210.585 172.58 210.165C172.87 210.023 173.189 209.948 173.512 209.944C173.836 209.941 174.156 210.009 174.45 210.145Z" fill="white"/>
<path d="M165.68 231.255C164.33 233.135 162.84 234.915 161.4 236.725L160.4 238.025C161.3 236.298 162.18 234.558 163.04 232.805C164.354 230.293 165.533 227.713 166.57 225.075C166.64 224.905 166.38 224.825 166.29 224.965C164.94 227.085 163.86 229.345 162.58 231.505C161.3 233.665 160.07 235.855 158.85 238.045C156.39 242.415 153.85 246.765 151.26 251.045C146.05 259.605 140.5 267.975 134.76 276.195C133.15 278.495 131.56 280.815 129.87 283.065C128.18 285.315 126.59 287.755 124.87 290.015C124.81 290.095 124.92 290.205 124.99 290.125C126.61 288.125 128.28 286.255 129.93 284.325C131.58 282.395 132.98 280.385 134.53 278.385C137.62 274.385 140.53 270.305 143.39 266.155C149.091 257.803 154.368 249.168 159.2 240.285L159.55 239.605C160.37 238.735 161.17 237.835 161.93 236.895C163.36 235.115 164.6 233.205 165.85 231.295C165.89 231.245 165.74 231.165 165.68 231.255Z" fill="#263238"/>
<path d="M196.85 185.605C196.85 185.605 200.16 199.165 196.21 201.035C188.84 204.525 175.67 193.685 174.81 191.745C174.6 191.245 173.5 178.215 172.68 168.095C172.14 161.575 171.68 156.255 171.68 156.255L197.53 166.505L196.95 184.325L196.85 185.605Z" fill="#DD6A57"/>
<path d="M197.53 166.505L196.95 184.325C192 183.472 187.284 181.586 183.111 178.789C178.938 175.993 175.401 172.349 172.73 168.095C172.19 161.575 171.73 156.255 171.73 156.255L174.96 157.415L197.53 166.505Z" fill="#263238"/>
<path d="M202.27 146.245C202.66 153.535 208.16 159.155 214.55 158.805C220.94 158.455 225.8 152.275 225.41 144.995C225.02 137.715 219.51 132.085 213.12 132.435C206.73 132.785 201.87 138.965 202.27 146.245Z" fill="#455A64"/>
<path d="M198.53 146.915C198.97 155.015 205.09 161.265 212.2 160.915C219.31 160.565 224.71 153.645 224.28 145.545C223.85 137.445 217.72 131.185 210.61 131.545C203.5 131.905 198.11 138.805 198.53 146.915Z" fill="#C7C7C7"/>
<path d="M220.25 140.945C222.66 172.145 204.25 177.115 197.52 177.625C191.41 178.095 170.52 178.905 164.92 148.115C159.32 117.325 173.04 106.345 186.92 104.535C200.8 102.725 217.83 109.735 220.25 140.945Z" fill="#DD6A57"/>
<path d="M210.53 135.385C209.814 135.294 209.103 135.167 208.4 135.005C207.633 134.971 206.899 134.687 206.31 134.195C206.159 134 206.077 133.761 206.077 133.515C206.077 133.269 206.159 133.029 206.31 132.835C206.654 132.484 207.086 132.232 207.561 132.105C208.036 131.978 208.537 131.982 209.01 132.115C210.012 132.232 210.935 132.716 211.6 133.475C211.742 133.66 211.827 133.882 211.844 134.115C211.861 134.347 211.81 134.58 211.696 134.783C211.582 134.987 211.411 135.152 211.203 135.259C210.996 135.366 210.762 135.41 210.53 135.385Z" fill="#263238"/>
<path d="M189.12 137.055C189.826 136.9 190.523 136.71 191.21 136.485C191.968 136.378 192.67 136.027 193.21 135.485C193.349 135.283 193.416 135.041 193.402 134.796C193.387 134.552 193.292 134.319 193.13 134.135C192.757 133.815 192.305 133.601 191.822 133.515C191.338 133.429 190.84 133.473 190.38 133.645C189.392 133.848 188.515 134.411 187.92 135.225C187.791 135.419 187.722 135.647 187.721 135.88C187.721 136.113 187.788 136.341 187.916 136.536C188.044 136.731 188.226 136.884 188.44 136.976C188.654 137.068 188.891 137.096 189.12 137.055Z" fill="#263238"/>
<path d="M194.53 144.655C194.53 144.575 194.38 144.775 194.39 144.855C194.64 146.975 194.58 149.445 192.72 150.315C192.66 150.315 192.72 150.445 192.72 150.435C195.06 149.895 195.11 146.615 194.53 144.655Z" fill="#263238"/>
<path d="M192.44 142.605C189 142.605 189.34 149.515 192.53 149.475C195.72 149.435 195.32 142.565 192.44 142.605Z" fill="#263238"/>
<path d="M191.11 143.035C190.53 143.455 189.97 144.165 189.25 144.275C188.53 144.385 187.75 143.715 187.17 143.045C187.11 142.975 187.06 143.045 187.06 143.135C187.06 144.445 187.68 145.775 189.06 145.905C190.44 146.035 191.22 144.805 191.48 143.465C191.53 143.215 191.34 142.865 191.11 143.035Z" fill="#263238"/>
<path d="M206.94 143.265C206.94 143.175 207.11 143.355 207.11 143.445C207.11 145.575 207.51 148.015 209.47 148.635C209.53 148.635 209.53 148.765 209.47 148.755C207.09 148.525 206.62 145.285 206.94 143.265Z" fill="#263238"/>
<path d="M208.75 140.955C212.16 140.555 212.75 147.415 209.55 147.785C206.35 148.155 205.89 141.295 208.75 140.955Z" fill="#263238"/>
<path d="M210.21 141.295C210.78 141.615 211.37 142.235 212.02 142.225C212.67 142.215 213.27 141.425 213.7 140.675C213.7 140.595 213.8 140.675 213.81 140.745C213.95 142.045 213.63 143.445 212.39 143.805C211.15 144.165 210.32 143.065 209.91 141.805C209.83 141.545 209.98 141.165 210.21 141.295Z" fill="#263238"/>
<path d="M196.47 161.145C196.98 161.645 197.47 162.325 198.27 162.385C199.062 162.365 199.842 162.181 200.56 161.845C200.574 161.833 200.593 161.827 200.612 161.829C200.631 161.831 200.648 161.84 200.66 161.855C200.672 161.869 200.677 161.888 200.675 161.907C200.674 161.926 200.664 161.943 200.65 161.955C200.347 162.374 199.936 162.704 199.46 162.908C198.985 163.112 198.463 163.184 197.95 163.115C197.514 163.008 197.121 162.773 196.821 162.439C196.521 162.106 196.329 161.689 196.27 161.245C196.23 161.115 196.4 161.075 196.47 161.145Z" fill="#263238"/>
<path d="M204.89 152.915C204.89 152.915 205.53 156.065 205.62 157.565C205.62 157.705 205.27 157.795 204.76 157.855C204.76 157.855 204.76 157.855 204.7 157.855C203.428 158.17 202.094 158.128 200.844 157.733C199.595 157.337 198.479 156.604 197.62 155.615C197.51 155.475 197.69 155.315 197.83 155.395C199.822 156.583 202.143 157.098 204.45 156.865C204.53 156.445 203.19 151.505 203.45 151.475C204.62 151.507 205.78 151.696 206.9 152.035C205.78 145.435 203.6 139.035 202.57 132.485C202.567 132.438 202.58 132.391 202.607 132.353C202.634 132.314 202.673 132.286 202.718 132.272C202.763 132.258 202.811 132.26 202.855 132.276C202.899 132.293 202.936 132.324 202.96 132.365C205.71 138.875 207.18 146.435 208.52 153.225C208.66 154.065 205.53 153.135 204.89 152.915Z" fill="#263238"/>
<path d="M203.72 157.105C203.028 158.266 202.05 159.23 200.88 159.905C200.229 160.248 199.489 160.381 198.76 160.285C197.16 160.065 196.96 158.655 197.1 157.405C197.178 156.742 197.336 156.09 197.57 155.465C199.391 156.656 201.547 157.231 203.72 157.105Z" fill="#263238"/>
<path d="M200.88 159.905C200.229 160.248 199.489 160.381 198.76 160.285C197.16 160.065 196.96 158.655 197.1 157.405C198.77 157.385 200.53 158.305 200.88 159.905Z" fill="#F392B9"/>
<path d="M165.38 145.315C168.79 145.315 178.11 136.395 179.22 120.005C179.22 120.005 177.22 134.655 175.99 136.755C174.76 138.855 181.2 131.755 182.28 118.535C182.28 118.535 189.34 124.195 195.49 126.265C201.64 128.335 205.49 128.475 205.95 128.045C206.41 127.615 197.37 124.255 195.03 121.255C195.03 121.255 211.26 129.835 218.89 130.805C219.77 130.915 217.74 117.335 206.29 108.995C194.84 100.655 179.67 103.475 174.38 108.085C174.38 108.085 168.38 108.625 161.53 117.085C154.68 125.545 161.71 145.385 165.38 145.315Z" fill="#263238"/>
<path d="M170.07 150.135C170.07 150.135 163.33 140.295 158.87 142.695C154.41 145.095 159.42 159.295 164.61 161.285C165.258 161.584 165.96 161.75 166.673 161.772C167.387 161.794 168.097 161.671 168.762 161.411C169.427 161.152 170.033 160.76 170.543 160.261C171.053 159.762 171.456 159.164 171.73 158.505L170.07 150.135Z" fill="#DD6A57"/>
<path d="M160.41 146.735C160.397 146.74 160.386 146.749 160.378 146.761C160.37 146.772 160.366 146.786 160.366 146.8C160.366 146.814 160.37 146.828 160.378 146.839C160.386 146.851 160.397 146.86 160.41 146.865C164.05 148.385 165.94 151.785 167.25 155.305C166.18 153.945 164.7 153.185 162.88 154.465C162.79 154.535 162.88 154.685 162.98 154.655C163.623 154.459 164.311 154.467 164.95 154.676C165.588 154.885 166.147 155.287 166.55 155.825C167.218 156.733 167.785 157.713 168.24 158.745C168.41 159.075 169 158.905 168.88 158.525V158.445C168.96 153.785 165.4 147.245 160.41 146.735Z" fill="#263238"/>
<path d="M167.53 159.925C167.524 160.143 167.453 160.354 167.327 160.531C167.2 160.709 167.024 160.845 166.82 160.923C166.617 161 166.395 161.015 166.182 160.966C165.97 160.917 165.777 160.806 165.628 160.647C165.479 160.488 165.38 160.288 165.345 160.073C165.309 159.858 165.339 159.637 165.429 159.439C165.519 159.24 165.666 159.073 165.851 158.959C166.037 158.844 166.252 158.787 166.47 158.795C166.76 158.805 167.034 158.93 167.232 159.142C167.431 159.353 167.538 159.635 167.53 159.925Z" fill="white"/>
<path d="M164.53 157.925C164.526 158.016 164.504 158.105 164.466 158.187C164.427 158.269 164.373 158.343 164.306 158.404C164.24 158.466 164.161 158.513 164.076 158.544C163.991 158.575 163.9 158.589 163.81 158.585C163.719 158.582 163.631 158.562 163.548 158.525C163.466 158.487 163.392 158.434 163.331 158.368C163.269 158.302 163.222 158.224 163.191 158.14C163.16 158.055 163.146 157.965 163.15 157.875C163.152 157.784 163.173 157.695 163.21 157.612C163.247 157.53 163.3 157.455 163.366 157.393C163.432 157.331 163.509 157.282 163.594 157.25C163.679 157.217 163.769 157.202 163.86 157.205C164.043 157.215 164.215 157.296 164.339 157.43C164.464 157.564 164.532 157.742 164.53 157.925Z" fill="white"/>
<path d="M159.18 148.895L157.03 149.345C156.974 149.356 156.916 149.357 156.86 149.346C156.804 149.335 156.751 149.313 156.703 149.282C156.656 149.25 156.615 149.209 156.584 149.162C156.552 149.114 156.53 149.061 156.52 149.005C156.496 148.893 156.517 148.777 156.579 148.682C156.641 148.586 156.738 148.519 156.85 148.495L159 148.045C159.056 148.033 159.113 148.033 159.169 148.044C159.225 148.054 159.278 148.076 159.326 148.108C159.373 148.14 159.414 148.18 159.446 148.228C159.477 148.275 159.499 148.329 159.51 148.385C159.533 148.496 159.512 148.612 159.45 148.708C159.388 148.804 159.291 148.871 159.18 148.895Z" fill="#FFC727"/>
<path d="M158.94 147.515L156.75 147.645C156.693 147.649 156.635 147.641 156.581 147.623C156.527 147.604 156.476 147.575 156.434 147.537C156.391 147.499 156.356 147.452 156.331 147.4C156.307 147.349 156.293 147.292 156.29 147.235C156.285 147.12 156.324 147.007 156.401 146.921C156.478 146.835 156.585 146.783 156.7 146.775L158.88 146.645C158.995 146.636 159.109 146.674 159.197 146.749C159.285 146.823 159.34 146.93 159.35 147.045C159.356 147.161 159.316 147.275 159.24 147.362C159.163 147.45 159.056 147.505 158.94 147.515Z" fill="#FFC727"/>
<path d="M163.6 142.625C163.6 142.625 160.96 126.885 164.73 117.625C168.93 107.385 188.98 98.8448 204.67 107.845C204.67 107.845 180.83 103.105 171.07 117.705C166.96 123.855 168.93 142.465 168.93 142.465L163.6 142.625Z" fill="#C7C7C7"/>
<path d="M168.02 165.156C175.096 164.379 180.116 157.212 179.231 149.148C178.346 141.083 171.893 135.175 164.816 135.951C157.74 136.727 152.72 143.894 153.605 151.959C154.489 160.023 160.943 165.932 168.02 165.156Z" fill="#C7C7C7"/>
<path d="M175.45 149.105C176.25 156.355 171.74 162.795 165.38 163.495C159.02 164.195 153.21 158.885 152.38 151.635C151.55 144.385 156.1 137.935 162.46 137.245C168.82 136.555 174.66 141.855 175.45 149.105Z" fill="#455A64"/>
<path d="M192.39 170.415L181.96 168.555L172.12 160.865L173.31 159.345L182.77 166.745L192.72 168.515L192.39 170.415Z" fill="#C7C7C7"/>
<path d="M191.02 169.145C191.3 166.145 199.27 165.375 198.85 169.875C198.43 174.375 190.74 172.125 191.02 169.145Z" fill="#37474F"/>
<path d="M196.93 185.215L194.3 199.815L174.02 186.215L170.41 192.675C170.41 192.675 192.41 216.385 192.24 215.135L195.4 202.385L205.09 208.805L200.24 188.645L196.93 185.215Z" fill="white"/>
<path d="M124.03 288.215C114.75 299.545 99.65 286.605 97.93 276.525C93.88 252.855 99.09 209.445 105.99 188.875C108.21 182.255 152.17 194.875 152.28 202.325C152.39 210.145 142.85 265.225 124.03 288.215Z" fill="#DD6A57"/>
<path d="M104.81 200.775C104.81 200.775 105.47 179.045 113.2 164.565C118.54 154.565 132.59 134.065 166.44 132.565C174.44 132.225 186.15 137.425 173.24 142.755C164.07 146.535 157.12 146.165 152.18 149.335C152.18 149.335 166.26 157.715 166.29 165.765C166.315 172.81 165.84 179.847 164.87 186.825C163.54 186.941 162.204 186.972 160.87 186.915C160.87 186.915 160.67 194.455 152.25 202.275L104.81 200.775Z" fill="#DD6A57"/>
<path d="M119.82 155.825C125.38 153.715 137.24 149.435 148.16 149.315C160.29 149.175 183.69 152.175 183.7 161.125C183.7 167.695 174.7 167.335 174.7 167.335C174.7 167.335 184.11 170.615 182.82 176.545C181.64 181.955 174.67 181.255 174.67 181.255C174.67 181.255 180.04 184.255 177.9 189.255C175.33 195.255 164.5 188.045 156.65 191.875C154.87 192.695 119.82 155.825 119.82 155.825Z" fill="#DD6A57"/>
<path d="M146.17 162.155C151.73 161.025 165 161.695 174.55 167.155C174.77 167.275 174.79 167.505 174.55 167.435C165.326 164.58 155.79 162.857 146.15 162.305C146.11 162.265 146.11 162.165 146.17 162.155Z" fill="#263238"/>
<path d="M146.67 174.385C151.56 173.905 165.21 175.205 174.67 181.025C174.88 181.155 174.89 181.395 174.67 181.315C165.624 177.993 156.231 175.705 146.67 174.495C146.659 174.49 146.65 174.483 146.644 174.473C146.637 174.463 146.634 174.452 146.634 174.44C146.634 174.428 146.637 174.417 146.644 174.407C146.65 174.397 146.659 174.39 146.67 174.385Z" fill="#263238"/>
<path d="M182.65 157.225C181.33 155.765 179.46 155.225 177.82 154.225C177.73 154.175 177.65 154.325 177.74 154.365C180.63 155.575 183.66 158.435 183.18 161.825C182.6 165.905 177.71 166.945 174.32 167.035C174.15 167.035 174.23 167.225 174.4 167.255C178.17 167.915 183.49 166.605 184.19 162.165C184.323 161.279 184.254 160.374 183.987 159.518C183.72 158.662 183.263 157.878 182.65 157.225Z" fill="#263238"/>
<path d="M173.85 166.905C173.76 166.905 173.69 167.005 173.78 167.045C179 169.045 182.22 172.675 182.48 174.735C182.667 175.732 182.546 176.763 182.133 177.69C181.721 178.617 181.036 179.396 180.17 179.925C178.357 180.923 176.252 181.256 174.22 180.865C174.05 180.865 173.99 181.085 174.15 181.115C176.6 181.565 181.31 182.115 183.01 178.165C184.43 174.865 182.84 169.385 173.85 166.905Z" fill="#263238"/>
<path d="M177.7 183.585C176.658 182.125 175.148 181.066 173.42 180.585C173.34 180.585 173.28 180.695 173.42 180.725C176.42 181.935 178.99 185.525 178.03 188.855C177.97 189.065 178.28 189.125 178.35 188.935C178.659 188.053 178.762 187.112 178.649 186.184C178.536 185.256 178.211 184.367 177.7 183.585Z" fill="#263238"/>
<path d="M179.34 137.275C179.1 135.775 177.21 134.275 173.58 133.595C176.58 134.415 178.77 136.035 178.75 137.495C178.73 138.955 177.65 140.495 174.47 142.205C174.38 142.205 174.47 142.295 174.54 142.255C176.42 141.385 179.76 139.965 179.34 137.275Z" fill="#263238"/>
<path d="M102.53 192.515L156.93 210.835C156.93 210.835 137.11 271.885 127.75 284.995C118.39 298.105 105.41 295.745 97.9198 279.485C90.4298 263.225 102.53 192.515 102.53 192.515Z" fill="#FFC727"/>
<path d="M131.23 212.295C131.995 212.042 132.814 212.001 133.6 212.175C134.026 212.335 134.395 212.621 134.657 212.993C134.919 213.366 135.063 213.809 135.07 214.265C135.068 214.568 135.141 214.867 135.285 215.135C135.428 215.402 135.636 215.629 135.89 215.795C136.171 215.977 136.495 216.081 136.83 216.095C137.2 216.175 137.58 216.215 137.95 216.315C137.187 216.584 136.361 216.615 135.58 216.405C135.163 216.227 134.807 215.93 134.558 215.551C134.309 215.172 134.177 214.728 134.18 214.275C134.175 213.975 134.094 213.682 133.943 213.423C133.793 213.163 133.578 212.947 133.32 212.795C133.017 212.615 132.672 212.518 132.32 212.515C131.98 212.445 131.61 212.385 131.23 212.295Z" fill="white"/>
<path d="M119.82 255.305C120.585 255.052 121.403 255.011 122.19 255.185C122.618 255.343 122.988 255.628 123.25 256.001C123.513 256.374 123.656 256.819 123.66 257.275C123.657 257.578 123.731 257.877 123.874 258.145C124.018 258.412 124.226 258.639 124.48 258.805C124.761 258.987 125.085 259.091 125.42 259.105C125.79 259.185 126.17 259.225 126.54 259.325C125.777 259.594 124.951 259.625 124.17 259.415C123.752 259.237 123.397 258.941 123.148 258.562C122.899 258.183 122.767 257.738 122.77 257.285C122.765 256.985 122.684 256.692 122.533 256.433C122.383 256.173 122.168 255.957 121.91 255.805C121.608 255.622 121.262 255.526 120.91 255.525C120.53 255.445 120.2 255.385 119.82 255.305Z" fill="white"/>
<path d="M124.68 288.625C124.44 288.865 124.2 289.085 123.96 289.295C123.925 289.028 123.83 288.773 123.683 288.548C123.536 288.323 123.34 288.134 123.11 287.995C122.807 287.815 122.462 287.722 122.11 287.725C121.74 287.655 121.36 287.605 120.98 287.505C121.745 287.253 122.564 287.211 123.35 287.385C123.649 287.482 123.923 287.643 124.153 287.857C124.382 288.072 124.562 288.334 124.68 288.625Z" fill="white"/>
<path d="M143.39 240.325C143.03 241.045 142.48 241.654 141.8 242.085C141.386 242.275 140.925 242.335 140.476 242.257C140.028 242.178 139.614 241.965 139.29 241.645C139.079 241.427 138.815 241.267 138.525 241.179C138.234 241.092 137.926 241.08 137.63 241.145C137.3 241.21 136.996 241.366 136.75 241.595C136.43 241.805 136.13 242.035 135.8 242.235C136.23 241.625 136.55 240.875 137.41 240.495C137.829 240.327 138.289 240.286 138.731 240.377C139.174 240.467 139.58 240.686 139.9 241.005C140.117 241.215 140.385 241.365 140.677 241.442C140.97 241.519 141.277 241.52 141.57 241.445C141.897 241.365 142.198 241.199 142.44 240.965C142.76 240.755 143.05 240.515 143.39 240.325Z" fill="white"/>
<path d="M106.35 244.175C105.987 244.893 105.438 245.501 104.76 245.935C104.344 246.125 103.881 246.184 103.431 246.106C102.982 246.027 102.566 245.814 102.24 245.495C102.029 245.277 101.765 245.117 101.475 245.029C101.184 244.942 100.876 244.93 100.58 244.995C100.25 245.06 99.9456 245.216 99.6997 245.445C99.3897 245.655 99.0897 245.895 98.6997 246.085C99.1397 245.475 99.4497 244.725 100.32 244.345C100.739 244.177 101.199 244.136 101.641 244.227C102.084 244.317 102.49 244.536 102.81 244.855C103.025 245.065 103.291 245.215 103.582 245.292C103.873 245.37 104.179 245.37 104.47 245.295C104.799 245.212 105.102 245.047 105.35 244.815C105.71 244.605 106.01 244.385 106.35 244.175Z" fill="white"/>
<path d="M112.4 204.095C112.043 204.817 111.493 205.427 110.81 205.855C110.397 206.044 109.936 206.104 109.488 206.027C109.041 205.95 108.626 205.74 108.3 205.425C108.088 205.208 107.825 205.047 107.535 204.958C107.245 204.869 106.937 204.854 106.64 204.915C106.312 204.985 106.008 205.14 105.76 205.365C105.44 205.575 105.14 205.815 104.76 206.005C105.19 205.395 105.51 204.645 106.37 204.265C106.79 204.096 107.25 204.055 107.694 204.147C108.137 204.24 108.543 204.462 108.86 204.785C109.079 204.992 109.347 205.141 109.639 205.218C109.93 205.295 110.237 205.297 110.53 205.225C110.856 205.141 111.155 204.975 111.4 204.745C111.77 204.525 112.07 204.295 112.4 204.095Z" fill="white"/>
<path d="M117.83 224.385C118.086 225.149 118.131 225.968 117.96 226.755C117.798 227.181 117.513 227.548 117.14 227.81C116.768 228.072 116.325 228.217 115.87 228.225C115.566 228.218 115.265 228.289 114.997 228.433C114.729 228.577 114.502 228.788 114.34 229.045C114.148 229.318 114.041 229.641 114.03 229.975C113.96 230.355 113.91 230.725 113.81 231.105C113.544 230.341 113.516 229.515 113.73 228.735C113.904 228.318 114.199 227.962 114.577 227.712C114.954 227.463 115.397 227.332 115.85 227.335C116.152 227.329 116.447 227.246 116.708 227.094C116.969 226.941 117.186 226.725 117.34 226.465C117.508 226.175 117.604 225.849 117.62 225.515C117.69 225.175 117.73 224.795 117.83 224.385Z" fill="white"/>
<path d="M110.61 273.675C110.863 274.44 110.904 275.258 110.73 276.045C110.572 276.471 110.289 276.84 109.918 277.103C109.547 277.365 109.105 277.509 108.65 277.515C108.345 277.512 108.044 277.585 107.775 277.728C107.506 277.872 107.278 278.08 107.11 278.335C106.928 278.616 106.824 278.94 106.81 279.275C106.74 279.645 106.69 280.025 106.59 280.405C106.328 279.637 106.297 278.81 106.5 278.025C106.678 277.609 106.975 277.254 107.354 277.007C107.733 276.76 108.177 276.63 108.63 276.635C108.931 276.626 109.226 276.542 109.486 276.39C109.746 276.238 109.964 276.023 110.12 275.765C110.296 275.461 110.389 275.116 110.39 274.765C110.47 274.435 110.53 274.055 110.61 273.675Z" fill="white"/>
<path d="M150.86 221.025C147.901 219.676 144.874 218.484 141.79 217.455C138.69 216.255 135.56 215.195 132.43 214.125C126.35 212.035 120.22 210.175 114.09 208.335C110.52 207.255 106.93 206.335 103.36 205.335C103.23 205.335 103.18 205.555 103.36 205.605C109.5 207.905 115.62 210.295 121.81 212.445C128 214.595 133.98 216.585 140.12 218.395C141.87 218.915 143.64 219.395 145.4 219.865C147.189 220.456 149.012 220.937 150.86 221.305C150.95 221.325 150.99 221.095 150.86 221.025Z" fill="#263238"/>
<path d="M158.03 210.975C157.88 210.485 151.85 208.915 151.54 208.825C151.45 208.825 151.41 208.945 151.54 208.975C151.83 209.075 156.94 211.205 156.92 211.245C153.92 219.245 151.18 227.325 148.3 235.365C145.42 243.405 142.47 251.465 139.75 259.595C138.22 264.145 138.32 264.595 139.94 260.675C141.56 256.755 143.22 253.535 144.71 249.555C147.71 241.555 150.52 233.425 153.33 225.325C154.89 220.735 158.08 211.135 158.03 210.975Z" fill="#263238"/>
<path d="M253 306.015H222.06C219.062 306.012 216.188 304.819 214.069 302.699C211.95 300.578 210.76 297.703 210.76 294.705C210.758 293.22 211.05 291.749 211.617 290.376C212.184 289.003 213.016 287.756 214.065 286.705C215.115 285.653 216.361 284.819 217.732 284.25C219.104 283.68 220.575 283.386 222.06 283.385H253C255.998 283.388 258.872 284.58 260.991 286.701C263.11 288.822 264.3 291.697 264.3 294.695C264.301 296.18 264.01 297.651 263.443 299.024C262.876 300.396 262.044 301.644 260.994 302.695C259.945 303.746 258.699 304.581 257.327 305.15C255.955 305.72 254.485 306.014 253 306.015Z" fill="#455A64"/>
<path d="M228.83 294.515C228.844 294.156 228.962 293.808 229.17 293.515C229.25 293.375 229.35 293.245 229.44 293.105L230.04 292.515C230.27 292.345 230.49 292.175 230.73 292.015C231.68 291.41 232.741 290.999 233.85 290.805C236.405 290.295 239.035 290.295 241.59 290.805C242.686 290.992 243.733 291.397 244.67 291.995C244.92 292.155 245.15 292.335 245.39 292.505L245.96 293.085C246.113 293.303 246.253 293.53 246.38 293.765C246.477 294.007 246.56 294.254 246.63 294.505H246.45H241.53C241.489 294.511 241.448 294.503 241.412 294.483C241.376 294.463 241.347 294.432 241.33 294.395C241.192 294.125 240.985 293.897 240.731 293.734C240.476 293.571 240.182 293.478 239.88 293.465C238.408 293.37 236.932 293.37 235.46 293.465C235.159 293.477 234.866 293.568 234.611 293.73C234.357 293.891 234.149 294.117 234.01 294.385C234.001 294.42 233.98 294.451 233.951 294.473C233.922 294.495 233.886 294.506 233.85 294.505H228.85L228.83 294.515Z" fill="white"/>
<path d="M228.82 297.385V295.655C228.815 295.615 228.815 295.575 228.82 295.535H233.82C233.82 295.645 233.82 295.775 233.82 295.895C233.82 296.385 233.82 296.895 233.82 297.365C233.831 297.452 233.823 297.54 233.795 297.623C233.767 297.706 233.72 297.781 233.658 297.843C233.596 297.905 233.521 297.952 233.438 297.98C233.355 298.008 233.267 298.016 233.18 298.005H229.44C229.356 298.014 229.271 298.005 229.192 297.977C229.112 297.949 229.04 297.904 228.98 297.845C228.921 297.785 228.875 297.713 228.848 297.633C228.82 297.553 228.81 297.469 228.82 297.385Z" fill="white"/>
<path d="M241.59 297.385C241.59 296.755 241.59 296.135 241.64 295.505H246.58C246.58 295.505 246.58 295.575 246.58 295.615V297.385C246.59 297.467 246.58 297.551 246.553 297.629C246.526 297.708 246.481 297.779 246.423 297.837C246.364 297.896 246.293 297.941 246.214 297.968C246.136 297.995 246.052 298.004 245.97 297.995H242.19C242.108 298.003 242.026 297.993 241.949 297.965C241.872 297.937 241.802 297.892 241.744 297.833C241.687 297.775 241.643 297.704 241.616 297.627C241.59 297.549 241.581 297.466 241.59 297.385Z" fill="white"/>
<path d="M447.91 131.165C450.424 133.674 452.187 136.836 453 140.294C453.813 143.752 453.643 147.368 452.51 150.735L441.46 139.735L433.32 143.605L429.44 151.755L440.44 162.815C437.216 163.897 433.761 164.099 430.433 163.398C427.105 162.697 424.024 161.121 421.51 158.83C418.996 156.54 417.139 153.62 416.131 150.371C415.124 147.123 415.003 143.664 415.78 140.353C416.558 137.043 418.206 133.999 420.553 131.539C422.901 129.078 425.864 127.29 429.135 126.358C432.406 125.426 435.866 125.385 439.158 126.239C442.45 127.093 445.454 128.811 447.86 131.215L447.91 131.165Z" fill="#FFC727"/>
<path d="M360.01 97.2449C357.496 94.7349 355.734 91.5729 354.921 88.1152C354.109 84.6576 354.278 81.0416 355.41 77.6749L366.46 88.7249L374.6 84.8449L378.48 76.7049L367.43 65.6449C370.654 64.5626 374.109 64.3613 377.437 65.0618C380.765 65.7624 383.845 67.3393 386.36 69.6295C388.874 71.9197 390.731 74.84 391.738 78.0884C392.745 81.3368 392.867 84.7954 392.089 88.1063C391.312 91.4173 389.664 94.4604 387.316 96.921C384.968 99.3816 382.006 101.17 378.735 102.102C375.464 103.034 372.003 103.075 368.711 102.221C365.419 101.367 362.415 99.6491 360.01 97.2449Z" fill="#FFC727"/>
<path d="M384.752 82.9747L372.731 94.9955L421.642 143.906L433.663 131.885L384.752 82.9747Z" fill="#FFC727"/>
<path d="M240.84 115.605C238.902 112.736 237.858 109.357 237.84 105.895C237.84 93.5949 251.35 83.6249 268 83.6249C284.65 83.6249 298.15 93.6249 298.15 105.895C298.15 118.165 284.65 128.175 268 128.175C260.6 128.293 253.342 126.143 247.2 122.015L236.81 124.655L240.84 115.605Z" fill="#FFC727"/>
<path d="M278.839 105.895C278.837 106.515 279.02 107.121 279.363 107.638C279.706 108.154 280.195 108.557 280.767 108.795C281.339 109.033 281.969 109.096 282.578 108.975C283.186 108.855 283.744 108.556 284.183 108.118C284.621 107.68 284.919 107.121 285.04 106.513C285.16 105.905 285.097 105.275 284.859 104.703C284.621 104.13 284.218 103.641 283.702 103.298C283.186 102.955 282.579 102.773 281.959 102.775C281.133 102.778 280.341 103.107 279.756 103.692C279.172 104.276 278.842 105.068 278.839 105.895Z" fill="#263238"/>
<path d="M267.989 109.025C269.718 109.025 271.119 107.624 271.119 105.895C271.119 104.166 269.718 102.765 267.989 102.765C266.261 102.765 264.859 104.166 264.859 105.895C264.859 107.624 266.261 109.025 267.989 109.025Z" fill="#263238"/>
<path d="M250.89 105.895C250.888 106.515 251.07 107.121 251.413 107.638C251.756 108.154 252.245 108.557 252.817 108.795C253.39 109.033 254.02 109.096 254.628 108.975C255.236 108.855 255.795 108.556 256.233 108.118C256.671 107.68 256.97 107.121 257.09 106.513C257.21 105.905 257.148 105.275 256.91 104.703C256.671 104.13 256.269 103.641 255.752 103.298C255.236 102.955 254.63 102.773 254.01 102.775C253.183 102.778 252.391 103.107 251.806 103.692C251.222 104.276 250.892 105.068 250.89 105.895Z" fill="#263238"/>
</svg>
