<svg width="81" height="83" viewBox="0 0 81 83" fill="none" xmlns="http://www.w3.org/2000/svg">
<path d="M42.8502 63.8215L61.0382 72.9543C63.0773 73.9777 65.4249 72.2746 65.0812 70.0168L62.0148 49.8998C61.7453 48.142 62.3273 46.3646 63.5734 45.099L77.8784 30.622C79.4839 28.997 78.5854 26.2392 76.3354 25.8681L56.2534 22.5673C54.4995 22.2782 52.9839 21.1767 52.1675 19.5985L42.8198 1.52047C41.7729 -0.506825 38.8706 -0.506825 37.8237 1.52047L28.476 19.5985C27.6596 21.1766 26.1479 22.2782 24.3901 22.5673L4.30808 25.8681C2.05418 26.2392 1.15968 28.997 2.76508 30.622L17.0701 45.099C18.3201 46.3646 18.8982 48.142 18.6287 49.8998L15.5623 70.0168C15.2185 72.2746 17.5662 73.9777 19.6053 72.9543L37.7933 63.8215C39.3831 63.0246 41.2542 63.0246 42.8402 63.8215H42.8502Z" fill="#0077FF"/>
<path d="M0.0924198 53.2714C-0.22789 52.2871 0.31117 51.2284 1.29552 50.9081L4.86192 49.7479C5.8463 49.4276 6.90492 49.9667 7.22522 50.951C7.54553 51.9354 7.00647 52.994 6.02212 53.3143L2.45572 54.4745C1.47134 54.7948 0.41272 54.2558 0.0924198 53.2714Z" fill="#0077FF"/>
<path d="M15.4598 5.97046C16.2997 5.36108 17.4715 5.54858 18.077 6.38452L20.2801 9.41972C20.8895 10.2596 20.702 11.4314 19.8661 12.0369C19.0262 12.6463 17.8544 12.4588 17.2489 11.6229L15.0458 8.58766C14.4364 7.74782 14.6239 6.57596 15.4598 5.97046Z" fill="#0077FF"/>
<path d="M80.5612 53.2714C80.8815 52.2871 80.3424 51.2284 79.3581 50.9081L75.7917 49.7479C74.8073 49.4276 73.7487 49.9667 73.4284 50.951C73.108 51.9354 73.6471 52.994 74.6315 53.3143L78.1979 54.4745C79.1822 54.7948 80.2409 54.2558 80.5612 53.2714Z" fill="#0077FF"/>
<path d="M65.1942 5.97046C64.3544 5.36108 63.1825 5.54858 62.577 6.38452L60.3739 9.41972C59.7645 10.2596 59.952 11.4314 60.788 12.0369C61.6278 12.6463 62.7997 12.4588 63.4052 11.6229L65.6083 8.58766C66.2176 7.74782 66.0301 6.57596 65.1942 5.97046Z" fill="#0077FF"/>
<path d="M40.3271 82.5015C39.2919 82.5015 38.4521 81.6616 38.4521 80.6265V76.8765C38.4521 75.8413 39.292 75.0015 40.3271 75.0015C41.3623 75.0015 42.2021 75.8413 42.2021 76.8765V80.6265C42.2021 81.6617 41.3623 82.5015 40.3271 82.5015Z" fill="#0077FF"/>
</svg>
