<svg width="64" height="64" viewBox="0 0 64 64" fill="none" xmlns="http://www.w3.org/2000/svg">
<path d="M49.832 48.6899H37.0762C36.5239 48.6899 36.0762 48.2422 36.0762 47.6899C36.0762 47.1377 36.5239 46.6899 37.0762 46.6899H49.832C50.3843 46.6899 50.832 47.1377 50.832 47.6899C50.832 48.2422 50.3843 48.6899 49.832 48.6899Z" fill="#0077FF"/>
<path d="M49.832 43.3623H37.0762C36.5239 43.3623 36.0762 42.9146 36.0762 42.3623C36.0762 41.8101 36.5239 41.3623 37.0762 41.3623H49.832C50.3843 41.3623 50.832 41.8101 50.832 42.3623C50.832 42.9146 50.3843 43.3623 49.832 43.3623Z" fill="#0077FF"/>
<path d="M59.8009 0H12.1709C9.8609 0 7.97089 1.88 7.97089 4.20001V10.1123H4.20264C1.88525 10.1123 0 11.998 0 14.3154V49.4517C0 51.769 1.88525 53.6548 4.20264 53.6548H20.7046L20.8257 61.5425C20.8291 61.7417 20.8911 61.9355 21.0054 62.0991C21.4819 62.7837 22.2646 63.1968 23.0981 63.2041C23.1055 63.2041 23.1133 63.2041 23.1206 63.2041C23.9111 63.2041 24.6611 62.8403 25.1528 62.2227L34.7197 53.6548H51.8237C54.1411 53.6548 56.0269 51.769 56.0269 49.4517V38.91H59.8009C62.1109 38.91 64.0009 37.02 64.0009 34.71V4.20001C64.0009 1.88 62.1109 0 59.8009 0ZM54.0269 49.4517C54.0269 50.6665 53.0386 51.6548 51.8237 51.6548H34.3374C34.0913 51.6548 33.8535 51.7456 33.6704 51.9097L23.748 60.7959C23.6948 60.8438 23.6465 60.897 23.6045 60.9551C23.4434 61.1787 23.2153 61.2041 23.1201 61.2041C23.0391 61.2056 22.9331 61.1899 22.8193 61.1211L22.6895 52.6396C22.6812 52.0933 22.2358 51.6548 21.6895 51.6548H4.20264C2.98828 51.6548 2 50.6665 2 49.4517V14.3154C2 13.1006 2.98828 12.1123 4.20264 12.1123H51.8237C53.0386 12.1123 54.0269 13.1006 54.0269 14.3154V49.4517Z" fill="#0077FF"/>
<path d="M49.8325 20.6777H40.6201C40.0679 20.6777 39.6201 21.1255 39.6201 21.6777C39.6201 22.23 40.0679 22.6777 40.6201 22.6777H49.8325C50.3848 22.6777 50.8325 22.23 50.8325 21.6777C50.8325 21.1255 50.3848 20.6777 49.8325 20.6777Z" fill="#0077FF"/>
<path d="M49.8325 15.373H40.6201C40.0679 15.373 39.6201 15.8208 39.6201 16.373C39.6201 16.9253 40.0679 17.373 40.6201 17.373H49.8325C50.3848 17.373 50.8325 16.9253 50.8325 16.373C50.8325 15.8208 50.3848 15.373 49.8325 15.373Z" fill="#0077FF"/>
<path d="M38.9026 30.7704C38.1832 21.9541 31.1214 15.1177 22.5894 15.1177C14.0571 15.1177 6.99548 21.9537 6.2757 30.7695C5.5274 31.2489 5.02734 32.083 5.02734 33.0356V35.7495C5.02734 37.2354 6.23633 38.4443 7.72217 38.4443H11.4921C13.2927 43.2021 17.4001 48.0659 22.5928 48.0659C27.7805 48.0659 31.8852 43.2009 33.6848 38.4443H37.4546C38.9404 38.4443 40.1494 37.2354 40.1494 35.7495V33.0356C40.1494 32.0836 39.6501 31.2499 38.9026 30.7704ZM32.7493 33.9066C32.677 34.5776 32.5605 35.2596 32.3834 35.9529C32.2841 36.3415 32.1685 36.7329 32.0366 37.1265C32.0364 37.1271 32.0363 37.1281 32.0363 37.1281C30.6035 41.4331 27.0376 46.0659 22.5928 46.0659C19.6208 46.0659 17.0464 43.9968 15.2342 41.3418C16.287 41.623 17.638 41.8785 19.311 41.989C19.8791 43.1676 21.1207 43.9922 22.5669 43.9922C24.5464 43.9922 26.1567 42.4556 26.1567 40.5664C26.1567 38.6777 24.5464 37.1411 22.5669 37.1411C20.8068 37.1411 19.3456 38.3581 19.0418 39.9551C16.0635 39.7032 14.3342 38.9748 13.7503 38.688C13.5179 38.1685 13.3127 37.6452 13.1401 37.1265C12.6118 35.5503 12.3442 34.0098 12.3442 32.5479C12.3442 32.1729 12.3599 31.813 12.3999 31.437C12.4738 30.6713 12.629 29.9354 12.8436 29.2296C13.7975 28.9174 16.4711 28.3024 19.8188 29.7549C20.6318 30.1074 21.479 30.2563 22.332 30.2563C25.8446 30.2563 29.437 27.7307 31.0369 26.4473C31.9753 27.89 32.5983 29.5874 32.7778 31.4458C32.8169 31.813 32.832 32.1729 32.832 32.5479C32.832 32.9933 32.7987 33.4479 32.7493 33.9066ZM34.6396 30.3408C33.634 24.2554 28.6066 19.769 22.5928 19.769C17.3352 19.769 12.8339 23.1953 11.1071 28.112C11.1042 28.1196 11.1022 28.127 11.0995 28.1346C10.8533 28.8397 10.6825 29.5818 10.5536 30.3408H8.32556C9.21912 22.8477 15.2925 17.1177 22.5894 17.1177C29.8862 17.1177 35.9592 22.8477 36.8527 30.3408H34.6396Z" fill="#0077FF"/>
</svg>
